# Blender 3.4.1
# www.blender.org
mtllib Tile1_21.mtl
o Cube
v -0.485989 -0.129107 -0.700058
v -0.144568 -0.270529 -0.700058
v -0.144568 -0.129107 -0.358636
v -0.507867 0.056070 -0.336758
v -0.144568 0.088050 -0.141479
v -0.144568 0.429471 -0.000058
v -0.485989 0.429471 -0.141479
v -0.507867 0.066172 -0.326656
v -0.703147 0.088050 -0.700058
v -0.517969 0.066172 -0.336758
v -0.703147 0.429471 -0.358636
v -0.844568 0.429471 -0.700058
v -0.485989 1.029471 -0.141479
v -0.144568 1.029471 -0.000058
v -0.144568 1.370893 -0.141479
v -0.507867 1.392771 -0.326656
v -0.144568 1.588050 -0.358636
v -0.144568 1.729471 -0.700058
v -0.485989 1.588050 -0.700058
v -0.507867 1.402873 -0.336758
v -0.703147 1.029471 -0.358636
v -0.517969 1.392771 -0.336758
v -0.703147 1.370893 -0.700058
v -0.844568 1.029471 -0.700058
v -0.144568 -0.129107 -1.641479
v -0.144568 -0.270529 -1.300058
v -0.485989 -0.129107 -1.300058
v -0.507867 0.056070 -1.663357
v -0.703147 0.088050 -1.300058
v -0.844568 0.429471 -1.300058
v -0.703147 0.429471 -1.641479
v -0.517969 0.066172 -1.663357
v -0.144568 0.088050 -1.858636
v -0.507867 0.066172 -1.673459
v -0.485989 0.429471 -1.858636
v -0.144568 0.429471 -2.000058
v -0.485989 1.588050 -1.300058
v -0.144568 1.729471 -1.300058
v -0.144568 1.588050 -1.641479
v -0.507867 1.402873 -1.663357
v -0.144568 1.370893 -1.858636
v -0.144568 1.029471 -2.000058
v -0.485989 1.029471 -1.858636
v -0.507867 1.392771 -1.673459
v -0.703147 1.370893 -1.300058
v -0.517969 1.392771 -1.663357
v -0.703147 1.029471 -1.641479
v -0.844568 1.029471 -1.300058
v 0.455432 -0.129107 -0.358636
v 0.455432 -0.270529 -0.700058
v 0.796853 -0.129107 -0.700058
v 0.818731 0.056070 -0.336758
v 1.014011 0.088050 -0.700058
v 1.155432 0.429471 -0.700058
v 1.014011 0.429471 -0.358636
v 0.828833 0.066172 -0.336758
v 0.455432 0.088050 -0.141479
v 0.818731 0.066172 -0.326656
v 0.796853 0.429471 -0.141479
v 0.455432 0.429471 -0.000058
v 0.796853 1.588050 -0.700058
v 0.455432 1.729471 -0.700058
v 0.455432 1.588050 -0.358636
v 0.818731 1.402873 -0.336758
v 0.455432 1.370893 -0.141479
v 0.455432 1.029471 -0.000058
v 0.796853 1.029471 -0.141479
v 0.818731 1.392771 -0.326656
v 1.014011 1.370893 -0.700058
v 0.828833 1.392771 -0.336758
v 1.014011 1.029471 -0.358636
v 1.155432 1.029471 -0.700058
v 0.796853 -0.129107 -1.300058
v 0.455432 -0.270529 -1.300058
v 0.455432 -0.129107 -1.641479
v 0.818731 0.056070 -1.663357
v 0.455432 0.088050 -1.858636
v 0.455432 0.429471 -2.000058
v 0.796853 0.429471 -1.858636
v 0.818731 0.066172 -1.673459
v 1.014011 0.088050 -1.300058
v 0.828833 0.066172 -1.663357
v 1.014011 0.429471 -1.641479
v 1.155432 0.429471 -1.300058
v 0.455432 1.588050 -1.641479
v 0.455432 1.729471 -1.300058
v 0.796853 1.588050 -1.300058
v 0.818731 1.402873 -1.663357
v 1.014011 1.370893 -1.300058
v 1.155432 1.029471 -1.300058
v 1.014011 1.029471 -1.641479
v 0.828833 1.392771 -1.663357
v 0.455432 1.370893 -1.858636
v 0.818731 1.392771 -1.673459
v 0.796853 1.029471 -1.858636
v 0.455432 1.029471 -2.000058
vn -1.0000 -0.0000 -0.0000
vn 0.7071 0.7071 -0.0000
vn -0.0000 -0.7071 -0.7071
vn -0.5774 0.5774 0.5774
vn -0.5774 0.5774 -0.5774
vn -0.0000 -1.0000 -0.0000
vn -0.0000 0.7071 0.7071
vn -0.7071 -0.0000 -0.7071
vn -0.0000 0.7071 -0.7071
vn 0.7071 -0.7071 -0.0000
vn 0.5774 -0.5774 -0.5774
vn 0.7071 -0.0000 -0.7071
vn -0.5774 -0.5774 0.5774
vn -0.0000 -0.0000 1.0000
vn -0.0000 1.0000 -0.0000
vn -0.0000 -0.0000 -1.0000
vn -0.5774 -0.5774 -0.5774
vn 0.5774 -0.5774 0.5774
vn 0.5774 0.5774 -0.5774
vn 0.7071 -0.0000 0.7071
vn 0.5774 0.5774 0.5774
vn 1.0000 -0.0000 -0.0000
vn -0.7071 -0.0000 0.7071
vn -0.7071 0.7071 -0.0000
vn -0.0000 -0.7071 0.7071
vn -0.3793 -0.8439 0.3793
vn -0.3793 -0.3793 0.8439
vn -0.8439 -0.3793 0.3793
vn -0.3793 0.3793 0.8439
vn -0.3793 0.8439 0.3793
vn -0.8439 0.3793 0.3793
vn -0.3793 -0.8439 -0.3793
vn -0.8439 -0.3793 -0.3793
vn -0.3793 -0.3793 -0.8439
vn -0.3793 0.8439 -0.3793
vn -0.3793 0.3793 -0.8439
vn -0.8439 0.3793 -0.3793
vn 0.3793 -0.8439 0.3793
vn 0.8439 -0.3793 0.3793
vn 0.3793 -0.3793 0.8439
vn 0.3793 0.8439 0.3793
vn 0.3793 0.3793 0.8439
vn 0.8439 0.3793 0.3793
vn 0.3793 -0.8439 -0.3793
vn 0.3793 -0.3793 -0.8439
vn 0.8439 -0.3793 -0.3793
vn 0.3793 0.8439 -0.3793
vn 0.8439 0.3793 -0.3793
vn 0.3793 0.3793 -0.8439
vn -0.6739 -0.6739 0.3029
vn -0.3029 -0.6739 0.6739
vn -0.6739 -0.3029 0.6739
vn -0.6739 0.3029 0.6739
vn -0.3029 0.6739 0.6739
vn -0.6739 0.6739 0.3029
vn -0.3029 -0.6739 -0.6739
vn -0.6739 -0.6739 -0.3029
vn -0.6739 -0.3029 -0.6739
vn -0.6739 0.6739 -0.3029
vn -0.3029 0.6739 -0.6739
vn -0.6739 0.3029 -0.6739
vn 0.3029 -0.6739 0.6739
vn 0.6739 -0.6739 0.3029
vn 0.6739 -0.3029 0.6739
vn 0.6739 0.6739 0.3029
vn 0.3029 0.6739 0.6739
vn 0.6739 0.3029 0.6739
vn 0.6739 -0.6739 -0.3029
vn 0.3029 -0.6739 -0.6739
vn 0.6739 -0.3029 -0.6739
vn 0.3029 0.6739 -0.6739
vn 0.6739 0.6739 -0.3029
vn 0.6739 0.3029 -0.6739
vn -0.3827 -0.9239 -0.0000
vn -0.9239 -0.3827 -0.0000
vn -0.3827 -0.0000 0.9239
vn -0.9239 -0.0000 0.3827
vn -0.3827 0.9239 -0.0000
vn -0.9239 0.3827 -0.0000
vn -0.3827 -0.0000 -0.9239
vn -0.9239 -0.0000 -0.3827
vn -0.0000 -0.9239 -0.3827
vn -0.0000 -0.3827 -0.9239
vn -0.0000 0.9239 -0.3827
vn -0.0000 0.3827 -0.9239
vn 0.9239 -0.0000 -0.3827
vn 0.3827 -0.0000 -0.9239
vn 0.3827 -0.9239 -0.0000
vn 0.9239 -0.3827 -0.0000
vn 0.3827 0.9239 -0.0000
vn 0.9239 0.3827 -0.0000
vn 0.3827 -0.0000 0.9239
vn 0.9239 -0.0000 0.3827
vn -0.0000 -0.9239 0.3827
vn -0.0000 -0.3827 0.9239
vn -0.0000 0.9239 0.3827
vn -0.0000 0.3827 0.9239
vn -0.7071 -0.7071 -0.0000
vt 0.179289 0.393950
vt 0.350000 0.393950
vt 0.350000 0.273258
vt 0.168350 0.265524
vt 0.350000 0.196492
vt 0.350000 0.273258
vt 0.350000 0.393950
vt 0.179289 0.393950
vt 0.168350 0.261953
vt 0.168350 0.265524
vt 0.350000 0.273258
vt 0.070711 0.393950
vt 0.168350 0.265524
vt 0.163299 0.265524
vt 0.070711 0.393950
vt 0.179289 0.393950
vt 0.350000 0.393950
vt 0.179289 0.606050
vt 0.350000 0.606050
vt 0.350000 0.196492
vt 0.350000 0.726742
vt 0.168350 0.734476
vt 0.168350 0.261953
vt 0.350000 0.273258
vt 0.350000 0.393950
vt 0.179289 0.393950
vt 0.168350 0.265524
vt 0.070711 0.606050
vt 0.179289 0.606050
vt 0.168350 0.734476
vt 0.163299 0.734476
vt 0.163299 0.265524
vt 0.070711 0.393950
vt 0.350000 0.726742
vt 0.350000 0.606050
vt 0.350000 0.726742
vt 0.350000 0.606050
vt 0.179289 0.606050
vt 0.168350 0.734476
vt 0.650000 0.273258
vt 0.070711 0.606050
vt 0.650000 0.393950
vt 0.070711 0.393950
vt 0.820711 0.393950
vt 0.831650 0.265524
vt 0.163299 0.734476
vt 0.163299 0.265524
vt 0.350000 0.803508
vt 0.350000 0.273258
vt 0.168350 0.738047
vt 0.168350 0.265524
vt 0.179289 0.393950
vt 0.350000 0.393950
vt 0.179289 0.606050
vt 0.350000 0.606050
vt 0.350000 0.726742
vt 0.168350 0.734476
vt 0.350000 0.803508
vt 0.350000 0.726742
vt 0.350000 0.606050
vt 0.179289 0.606050
vt 0.168350 0.738047
vt 0.168350 0.734476
vt 0.070711 0.606050
vt 0.650000 0.726742
vt 0.831650 0.734476
vt 0.163299 0.734476
vt 0.070711 0.606050
vt 0.820711 0.606050
vt 0.650000 0.606050
vt 0.650000 0.273258
vt 0.650000 0.393950
vt 0.820711 0.393950
vt 0.831650 0.265524
vt 0.929289 0.393950
vt 0.350000 0.273258
vt 0.350000 0.393950
vt 0.929289 0.393950
vt 0.179289 0.393950
vt 0.168350 0.265524
vt 0.836701 0.265524
vt 0.650000 0.196492
vt 0.650000 0.273258
vt 0.831650 0.261953
vt 0.831650 0.265524
vt 0.820711 0.393950
vt 0.650000 0.393950
vt 0.820711 0.393950
vt 0.650000 0.393950
vt 0.650000 0.273258
vt 0.831650 0.265524
vt 0.650000 0.196492
vt 0.650000 0.726742
vt 0.650000 0.606050
vt 0.820711 0.606050
vt 0.831650 0.261953
vt 0.831650 0.734476
vt 0.929289 0.393950
vt 0.350000 0.726742
vt 0.168350 0.734476
vt 0.836701 0.265524
vt 0.836701 0.734476
vt 0.929289 0.606050
vt 0.179289 0.606050
vt 0.350000 0.606050
vt 0.820711 0.606050
vt 0.650000 0.606050
vt 0.650000 0.726742
vt 0.831650 0.734476
vt 0.650000 0.803508
vt 0.650000 0.273258
vt 0.650000 0.393950
vt 0.820711 0.393950
vt 0.831650 0.738047
vt 0.831650 0.265524
vt 0.929289 0.606050
vt 0.650000 0.273258
vt 0.831650 0.265524
vt 0.836701 0.734476
vt 0.836701 0.265524
vt 0.929289 0.393950
vt 0.820711 0.393950
vt 0.650000 0.393950
vt 0.650000 0.726742
vt 0.650000 0.606050
vt 0.820711 0.606050
vt 0.831650 0.734476
vt 0.929289 0.606050
vt 0.650000 0.726742
vt 0.650000 0.606050
vt 0.929289 0.606050
vt 0.820711 0.606050
vt 0.831650 0.734476
vt 0.836701 0.734476
vt 0.650000 0.803508
vt 0.650000 0.726742
vt 0.831650 0.738047
vt 0.831650 0.734476
vt 0.820711 0.606050
vt 0.650000 0.606050
s 0
usemtl Material.019
f 12/17/1 24/35/1 48/70/1 30/42/1
f 87/126/2 61/88/2 69/98/2 89/128/2
f 75/108/3 25/36/3 33/48/3 77/110/3
f 16/23/4 20/27/4 22/32/4
f 40/57/5 44/62/5 46/67/5
f 26/37/6 74/107/6 50/72/6 2/2/6
f 63/90/7 17/24/7 15/20/7 65/92/7
f 43/61/8 35/52/8 31/43/8 47/68/8
f 39/56/9 85/124/9 93/135/9 41/58/9
f 51/73/10 73/106/10 81/116/10 53/75/10
f 76/109/11 80/114/11 82/119/11
f 91/131/12 83/121/12 79/113/12 95/139/12
f 4/4/13 8/9/13 10/14/13
f 60/87/14 66/94/14 14/19/14 6/7/14
f 86/125/15 38/55/15 18/25/15 62/89/15
f 36/53/16 42/60/16 96/140/16 78/112/16
f 28/39/17 32/46/17 34/50/17
f 52/74/18 56/81/18 58/84/18
f 88/127/19 92/134/19 94/137/19
f 67/95/20 59/86/20 55/78/20 71/103/20
f 64/91/21 68/96/21 70/101/21
f 84/123/22 90/130/22 72/105/22 54/77/22
f 7/8/23 13/18/23 21/28/23 11/15/23
f 19/26/24 37/54/24 45/64/24 23/33/24
f 3/3/25 49/71/25 57/82/25 5/5/25
f 1/1/26 2/2/26 3/3/26 4/4/26
f 5/6/27 6/7/27 7/8/27 8/10/27
f 9/11/28 10/13/28 11/16/28 12/17/28
f 13/18/29 14/19/29 15/21/29 16/22/29
f 17/24/30 18/25/30 19/26/30 20/27/30
f 21/29/31 22/30/31 23/34/31 24/35/31
f 25/36/32 26/37/32 27/38/32 28/39/32
f 29/40/33 30/42/33 31/44/33 32/45/33
f 33/49/34 34/51/34 35/52/34 36/53/34
f 37/54/35 38/55/35 39/56/35 40/57/35
f 41/59/36 42/60/36 43/61/36 44/63/36
f 45/65/37 46/66/37 47/69/37 48/70/37
f 49/71/38 50/72/38 51/73/38 52/74/38
f 53/76/39 54/77/39 55/79/39 56/80/39
f 57/83/40 58/85/40 59/86/40 60/87/40
f 61/88/41 62/89/41 63/90/41 64/91/41
f 65/93/42 66/94/42 67/95/42 68/97/42
f 69/99/43 70/100/43 71/104/43 72/105/43
f 73/106/44 74/107/44 75/108/44 76/109/44
f 77/111/45 78/112/45 79/113/45 80/115/45
f 81/117/46 82/118/46 83/122/46 84/123/46
f 85/124/47 86/125/47 87/126/47 88/127/47
f 89/129/48 90/130/48 91/132/48 92/133/48
f 93/136/49 94/138/49 95/139/49 96/140/49
f 9/12/50 1/1/50 4/4/50 10/14/50
f 3/3/51 5/5/51 8/9/51 4/4/51
f 7/8/52 11/15/52 10/14/52 8/10/52
f 21/28/53 13/18/53 16/22/53 22/31/53
f 15/20/54 17/24/54 20/27/54 16/23/54
f 19/26/55 23/33/55 22/32/55 20/27/55
f 33/48/56 25/36/56 28/39/56 34/50/56
f 27/38/57 29/41/57 32/46/57 28/39/57
f 31/43/58 35/52/58 34/51/58 32/47/58
f 45/64/59 37/54/59 40/57/59 46/67/59
f 39/56/60 41/58/60 44/62/60 40/57/60
f 43/61/61 47/68/61 46/67/61 44/63/61
f 57/82/62 49/71/62 52/74/62 58/84/62
f 51/73/63 53/75/63 56/81/63 52/74/63
f 55/78/64 59/86/64 58/85/64 56/81/64
f 69/98/65 61/88/65 64/91/65 70/101/65
f 63/90/66 65/92/66 68/96/66 64/91/66
f 67/95/67 71/103/67 70/102/67 68/97/67
f 81/116/68 73/106/68 76/109/68 82/119/68
f 75/108/69 77/110/69 80/114/69 76/109/69
f 79/113/70 83/121/70 82/120/70 80/115/70
f 93/135/71 85/124/71 88/127/71 94/137/71
f 87/126/72 89/128/72 92/134/72 88/127/72
f 91/131/73 95/139/73 94/138/73 92/134/73
f 26/37/74 2/2/74 1/1/74 27/38/74
f 12/17/75 30/42/75 29/40/75 9/11/75
f 6/7/76 14/19/76 13/18/76 7/8/76
f 24/35/77 12/17/77 11/16/77 21/29/77
f 18/25/78 38/55/78 37/54/78 19/26/78
f 48/70/79 24/35/79 23/34/79 45/65/79
f 42/60/80 36/53/80 35/52/80 43/61/80
f 30/42/81 48/70/81 47/69/81 31/44/81
f 74/107/82 26/37/82 25/36/82 75/108/82
f 36/53/83 78/112/83 77/111/83 33/49/83
f 38/55/84 86/125/84 85/124/84 39/56/84
f 96/140/85 42/60/85 41/59/85 93/136/85
f 90/130/86 84/123/86 83/122/86 91/132/86
f 78/112/87 96/140/87 95/139/87 79/113/87
f 50/72/88 74/107/88 73/106/88 51/73/88
f 84/123/89 54/77/89 53/76/89 81/117/89
f 86/125/90 62/89/90 61/88/90 87/126/90
f 72/105/91 90/130/91 89/129/91 69/99/91
f 66/94/92 60/87/92 59/86/92 67/95/92
f 54/77/93 72/105/93 71/104/93 55/79/93
f 2/2/94 50/72/94 49/71/94 3/3/94
f 60/87/95 6/7/95 5/6/95 57/83/95
f 62/89/96 18/25/96 17/24/96 63/90/96
f 14/19/97 66/94/97 65/93/97 15/21/97
f 27/38/98 1/1/98 9/12/98 29/41/98
