# Blender 3.4.1
# www.blender.org
mtllib Tile1_12.mtl
o Cube
v -0.094568 -0.270529 -0.000058
v -0.521345 -0.093752 -0.000058
v -0.521345 -0.270529 -0.176834
v -0.844568 0.479471 -0.000058
v -0.844568 0.052695 -0.176834
v -0.667791 0.052695 -0.000058
v -0.667791 -0.270529 -0.323281
v -0.844568 -0.093752 -0.323281
v -0.844568 -0.270529 -0.750058
v -0.094568 1.729471 -0.000058
v -0.521345 1.729471 -0.176834
v -0.521345 1.552695 -0.000058
v -0.844568 1.729471 -0.750058
v -0.844568 1.552695 -0.323281
v -0.667791 1.729471 -0.323281
v -0.667791 1.406248 -0.000058
v -0.844568 1.406248 -0.176834
v -0.844568 0.979471 -0.000058
v -0.844568 -0.270529 -1.250058
v -0.844568 -0.093752 -1.676834
v -0.667791 -0.270529 -1.676834
v -0.844568 0.479471 -2.000058
v -0.667791 0.052695 -2.000058
v -0.844568 0.052695 -1.823281
v -0.521345 -0.270529 -1.823281
v -0.521345 -0.093752 -2.000058
v -0.094568 -0.270529 -2.000058
v -0.094568 1.729471 -2.000058
v -0.521345 1.552695 -2.000058
v -0.521345 1.729471 -1.823281
v -0.844568 0.979471 -2.000058
v -0.844568 1.406248 -1.823281
v -0.667791 1.406248 -2.000058
v -0.667791 1.729471 -1.676834
v -0.844568 1.552695 -1.676834
v -0.844568 1.729471 -1.250058
v 1.155432 -0.270529 -0.750058
v 1.155432 -0.093752 -0.323281
v 0.978655 -0.270529 -0.323281
v 1.155432 0.479471 -0.000058
v 0.978655 0.052695 -0.000058
v 1.155432 0.052695 -0.176834
v 0.832209 -0.270529 -0.176834
v 0.832209 -0.093752 -0.000058
v 0.405432 -0.270529 -0.000058
v 0.405432 1.729471 -0.000058
v 0.832209 1.552695 -0.000058
v 0.832209 1.729471 -0.176834
v 1.155432 0.979471 -0.000058
v 1.155432 1.406248 -0.176834
v 0.978655 1.406248 -0.000058
v 0.978655 1.729471 -0.323281
v 1.155432 1.552695 -0.323281
v 1.155432 1.729471 -0.750058
v 0.405432 -0.270529 -2.000058
v 0.832209 -0.093752 -2.000058
v 0.832209 -0.270529 -1.823281
v 1.155432 0.479471 -2.000058
v 1.155432 0.052695 -1.823281
v 0.978655 0.052695 -2.000058
v 0.978655 -0.270529 -1.676834
v 1.155432 -0.093752 -1.676834
v 1.155432 -0.270529 -1.250058
v 1.155432 1.729471 -1.250058
v 1.155432 1.552695 -1.676834
v 0.978655 1.729471 -1.676834
v 1.155432 0.979471 -2.000058
v 0.978655 1.406248 -2.000058
v 1.155432 1.406248 -1.823281
v 0.832209 1.729471 -1.823281
v 0.832209 1.552695 -2.000058
v 0.405432 1.729471 -2.000058
vn -1.0000 -0.0000 -0.0000
vn 0.5774 0.5774 0.5774
vn -0.5774 -0.5774 -0.5774
vn -0.5774 0.5774 0.5774
vn -0.5774 0.5774 -0.5774
vn -0.0000 -0.0000 1.0000
vn -0.0000 1.0000 -0.0000
vn -0.0000 -0.0000 -1.0000
vn 0.5774 -0.5774 0.5774
vn 1.0000 -0.0000 -0.0000
vn 0.5774 -0.5774 -0.5774
vn 0.5774 0.5774 -0.5774
vn -0.5774 -0.5774 0.5774
vn -0.2811 -0.6786 0.6786
vn -0.6786 -0.2811 0.6786
vn -0.6786 -0.6786 0.2811
vn -0.2811 0.6786 0.6786
vn -0.6786 0.6786 0.2811
vn -0.6786 0.2811 0.6786
vn -0.6786 -0.6786 -0.2811
vn -0.6786 -0.2811 -0.6786
vn -0.2811 -0.6786 -0.6786
vn -0.2811 0.6786 -0.6786
vn -0.6786 0.2811 -0.6786
vn -0.6786 0.6786 -0.2811
vn 0.6786 -0.6786 0.2811
vn 0.6786 -0.2811 0.6786
vn 0.2811 -0.6786 0.6786
vn 0.2811 0.6786 0.6786
vn 0.6786 0.2811 0.6786
vn 0.6786 0.6786 0.2811
vn 0.2811 -0.6786 -0.6786
vn 0.6786 -0.2811 -0.6786
vn 0.6786 -0.6786 -0.2811
vn 0.6786 0.6786 -0.2811
vn 0.6786 0.2811 -0.6786
vn 0.2811 0.6786 -0.6786
vn -0.0000 -1.0000 -0.0000
vt 0.458333 0.146500
vt 0.791667 0.382167
vt 0.333333 0.402997
vt 0.387204 0.167330
vt 0.303871 0.382167
vt 0.387204 0.146500
vt 0.720537 0.361336
vt 0.333333 0.234875
vt 0.333333 0.470542
vt 0.303871 0.420253
vt 0.362796 0.184586
vt 0.333333 0.420253
vt 0.279463 0.382167
vt 0.696130 0.344080
vt 0.279463 0.402997
vt 0.208333 0.382167
vt 0.666667 0.293792
vt 0.541667 0.617833
vt 0.458333 0.382167
vt 0.612796 0.597003
vt 0.387204 0.382167
vt 0.387204 0.361336
vt 0.666667 0.529458
vt 0.208333 0.617833
vt 0.333333 0.361336
vt 0.279463 0.597003
vt 0.362796 0.382167
vt 0.637204 0.579747
vt 0.279463 0.617833
vt 0.362796 0.344080
vt 0.333333 0.579747
vt 0.333333 0.344080
vt 0.303871 0.579747
vt 0.333333 0.293792
vt 0.333333 0.529458
vt 0.125000 0.382167
vt 0.666667 0.234875
vt 0.666667 0.184586
vt 0.053871 0.402997
vt 0.053871 0.382167
vt 0.696130 0.184586
vt 0.333333 0.706208
vt 0.000000 0.470542
vt 0.696130 0.146500
vt 0.303871 0.655920
vt 0.000000 0.420253
vt 0.666667 0.167330
vt 0.029463 0.420253
vt 0.279463 0.617833
vt 0.720537 0.167330
vt 0.720537 0.146500
vt 0.279463 0.638664
vt 0.208333 0.617833
vt 0.791667 0.146500
vt 0.541667 0.382167
vt 0.208333 0.853500
vt 0.000000 0.597003
vt 0.279463 0.832670
vt 0.029463 0.617833
vt 0.612796 0.402997
vt 0.279463 0.853500
vt 0.333333 0.765125
vt 0.000000 0.529458
vt 0.029463 0.579747
vt 0.303871 0.815414
vt 0.000000 0.579747
vt 0.637204 0.420253
vt 0.053871 0.617833
vt 0.053871 0.597003
vt 0.666667 0.470542
vt 0.125000 0.617833
vt 0.125000 0.146500
vt 1.000000 0.293792
vt 1.000000 0.344080
vt 0.053871 0.167330
vt 0.053871 0.146500
vt 0.970537 0.344080
vt 0.666667 0.234875
vt 0.000000 0.234875
vt 0.637204 0.184586
vt 0.970537 0.382167
vt 0.000000 0.184586
vt 1.000000 0.361336
vt 0.029463 0.184586
vt 0.612796 0.146500
vt 0.946130 0.361336
vt 0.946130 0.382167
vt 0.612796 0.167330
vt 0.541667 0.146500
vt 0.875000 0.382167
vt 0.458333 0.617833
vt 0.541667 0.382167
vt 0.000000 0.361336
vt 0.612796 0.361336
vt 0.029463 0.382167
vt 0.387204 0.597003
vt 0.612796 0.382167
vt 0.666667 0.293792
vt 0.000000 0.293792
vt 0.029463 0.344080
vt 0.637204 0.344080
vt 0.000000 0.344080
vt 0.362796 0.579747
vt 0.053871 0.382167
vt 0.053871 0.361336
vt 0.333333 0.529458
vt 0.125000 0.382167
vt 0.125000 0.617833
vt 0.875000 0.146500
vt 0.333333 0.167330
vt 0.053871 0.638664
vt 0.303871 0.146500
vt 0.053871 0.617833
vt 0.946130 0.167330
vt 0.000000 0.706208
vt 0.333333 0.234875
vt 0.303871 0.184586
vt 0.029463 0.655920
vt 0.333333 0.184586
vt 0.279463 0.146500
vt 0.970537 0.184586
vt 0.279463 0.167330
vt 0.208333 0.146500
vt 1.000000 0.234875
vt 0.333333 0.470542
vt 0.208333 0.382167
vt 0.333333 0.420253
vt 0.279463 0.361336
vt 0.362796 0.420253
vt 0.279463 0.382167
vt 0.000000 0.765125
vt 0.333333 0.293792
vt 0.029463 0.815414
vt 0.362796 0.382167
vt 0.333333 0.344080
vt 0.333333 0.402997
vt 0.303871 0.344080
vt 0.387204 0.402997
vt 0.053871 0.853500
vt 0.387204 0.382167
vt 0.053871 0.832670
vt 0.458333 0.382167
vt 0.125000 0.853500
s 0
usemtl Material
f 9/16/1 8/15/1 5/10/1 4/9/1 18/35/1 17/33/1 14/26/1 13/24/1 36/71/1 35/69/1 32/64/1 31/63/1 22/43/1 24/48/1 20/39/1 19/36/1
f 48/95/2 47/93/2 51/102/2 50/100/2 53/105/2 52/104/2
f 21/41/3 20/38/3 24/47/3 23/44/3 26/51/3 25/50/3
f 12/22/4 11/21/4 15/27/4 14/25/4 17/32/4 16/30/4
f 30/59/5 29/57/5 33/66/5 32/64/5 35/69/5 34/68/5
f 45/89/6 44/88/6 41/80/6 40/78/6 49/98/6 51/101/6 47/94/6 46/92/6 10/19/6 12/22/6 16/30/6 18/34/6 4/8/6 6/11/6 2/4/6 1/1/6
f 64/125/7 66/129/7 70/138/7 72/142/7 28/55/7 30/60/7 34/67/7 36/70/7 13/23/7 15/28/7 11/20/7 10/18/7 46/91/7 48/96/7 52/103/7 54/106/7
f 27/53/8 26/52/8 23/45/8 22/42/8 31/62/8 33/65/8 29/58/8 28/56/8 72/143/8 71/141/8 68/133/8 67/131/8 58/115/8 60/118/8 56/111/8 55/108/8
f 39/77/9 38/74/9 42/83/9 41/81/9 44/87/9 43/86/9
f 63/123/10 62/122/10 59/117/10 58/116/10 67/132/10 69/137/10 65/128/10 64/126/10 54/107/10 53/105/10 50/100/10 49/99/10 40/79/10 42/84/10 38/75/10 37/72/10
f 57/112/11 56/110/11 60/119/11 59/117/11 62/122/11 61/120/11
f 66/129/12 65/127/12 69/136/12 68/134/12 71/140/12 70/138/12
f 3/5/13 2/3/13 6/12/13 5/10/13 8/15/13 7/13/13
f 1/1/14 2/4/14 3/6/14
f 4/9/15 5/10/15 6/12/15
f 7/13/16 8/15/16 9/16/16
f 10/19/17 11/21/17 12/22/17
f 13/24/18 14/26/18 15/29/18
f 16/31/19 17/33/19 18/35/19
f 19/36/20 20/39/20 21/40/20
f 22/43/21 23/46/21 24/48/21
f 25/49/22 26/52/22 27/53/22
f 28/56/23 29/58/23 30/61/23
f 31/63/24 32/64/24 33/66/24
f 34/68/25 35/69/25 36/71/25
f 37/72/26 38/75/26 39/76/26
f 40/79/27 41/82/27 42/84/27
f 43/85/28 44/88/28 45/89/28
f 46/92/29 47/94/29 48/97/29
f 49/99/30 50/100/30 51/102/30
f 52/104/31 53/105/31 54/107/31
f 55/108/32 56/111/32 57/113/32
f 58/116/33 59/117/33 60/119/33
f 61/120/34 62/122/34 63/123/34
f 64/126/35 65/128/35 66/130/35
f 67/132/36 68/135/36 69/137/36
f 70/139/37 71/141/37 72/143/37
f 19/37/38 21/41/38 25/50/38 27/54/38 55/109/38 57/114/38 61/121/38 63/124/38 37/73/38 39/77/38 43/86/38 45/90/38 1/2/38 3/7/38 7/14/38 9/17/38
