# Blender 3.4.1
# www.blender.org
mtllib Readable.mtl
o Cube
v -0.094568 -0.270529 -0.500058
v -0.094568 0.229471 -0.000058
v -0.094568 1.229471 -0.000058
v -0.094568 1.729471 -0.500058
v -0.094568 0.229471 -2.000058
v -0.094568 -0.270529 -1.500058
v -0.094568 1.729471 -1.500058
v -0.094568 1.229471 -2.000058
v 0.405432 0.229471 -0.000058
v 0.405432 -0.270529 -0.500058
v 0.405432 1.729471 -0.500058
v 0.405432 1.229471 -0.000058
v 0.405432 -0.270529 -1.500058
v 0.405432 0.229471 -2.000058
v 0.405432 1.229471 -2.000058
v 0.405432 1.729471 -1.500058
vn -0.0000 -0.0000 1.0000
vn 1.0000 -0.0000 -0.0000
vn -0.0000 1.0000 -0.0000
vn -1.0000 -0.0000 -0.0000
vn -0.0000 -0.0000 -1.0000
vn -0.0000 -0.7071 -0.7071
vn -0.0000 0.7071 -0.7071
vn -0.0000 -0.7071 0.7071
vn -0.0000 0.7071 0.7071
vn -0.0000 -1.0000 -0.0000
vt 0.627674 0.798630
vt 0.000000 0.000000
vt 0.000000 0.617436
vt 0.907758 0.612437
vt 0.000000 0.617436
vt 1.040086 0.566816
vt 1.000000 0.617436
vt 1.000000 0.617436
vt 0.730637 0.270412
vt 1.000000 0.000000
vt 0.101046 0.809888
vt 0.000000 0.000000
vt 1.000000 0.617436
vt 0.224457 0.747049
vt 1.000000 0.000000
vt 0.000000 0.000000
vt 1.000000 0.000000
vt 0.327421 0.218832
vt 0.000000 0.000000
vt 0.066635 0.442290
vt 1.000000 0.000000
vt 0.000000 0.617436
vt 0.000000 0.000000
vt 0.151866 0.453850
vt 1.000000 0.617436
vt 0.334914 0.319764
vt 1.000000 0.000000
vt 1.000000 0.617436
vt 0.334914 0.710397
vt 0.000000 0.617436
vt 0.000000 0.000000
vt 1.000000 0.000000
vt 0.151866 0.576311
vt 0.000000 0.617436
vt 0.701010 0.319764
vt 0.000000 0.000000
vt 1.000000 0.000000
vt 0.884058 0.453850
vt 0.000000 0.617436
vt 0.884058 0.576311
vt 1.000000 0.617436
vt 0.701010 0.710397
vt 0.000000 0.000000
vt 1.000000 0.000000
s 0
usemtl Material.002
f 9/23/1 12/32/1 3/7/1 2/5/1
f 13/35/2 14/38/2 15/40/2 16/42/2 11/29/2 12/33/2 9/24/2 10/26/2
f 16/43/3 7/17/3 4/8/3 11/30/3
f 1/1/4 2/4/4 3/6/4 4/9/4 7/18/4 8/20/4 5/11/4 6/14/4
f 5/12/5 8/21/5 15/41/5 14/39/5
f 13/36/6 6/15/6 5/13/6 14/39/6
f 7/19/7 16/44/7 15/41/7 8/22/7
f 1/2/8 10/27/8 9/25/8 2/5/8
f 11/31/9 4/10/9 3/7/9 12/34/9
f 6/16/10 13/37/10 10/28/10 1/3/10
