# Blender 3.4.1
# www.blender.org
mtllib MainCharLR.mtl
o Icosphere.005
v -0.037156 -2.931684 -0.385642
v -0.120242 -2.931684 -0.500000
v -0.037156 -2.931684 -0.614358
v 0.097279 -2.931684 -0.570676
v 0.097279 -2.931684 -0.429324
v 0.293582 -2.631762 -0.286703
v 0.390860 -2.483136 -0.357380
v 0.413824 -2.242650 -0.286702
v 0.330740 -2.242651 -0.172345
v 0.256426 -2.483136 -0.172345
v -0.014858 -2.483136 -0.084199
v -0.074980 -2.242650 -0.040517
v -0.209414 -2.242652 -0.084197
v -0.232378 -2.483135 -0.154874
v -0.112136 -2.631763 -0.154875
v -0.400044 -2.483133 -0.385643
v -0.460166 -2.242646 -0.429324
v -0.460166 -2.242646 -0.570676
v -0.400044 -2.483133 -0.614357
v -0.362887 -2.631759 -0.500000
v -0.232378 -2.483135 -0.845126
v -0.209414 -2.242652 -0.915803
v -0.074980 -2.242650 -0.959483
v -0.014858 -2.483136 -0.915801
v -0.112136 -2.631763 -0.845125
v 0.293582 -2.631762 -0.713297
v 0.256426 -2.483136 -0.827655
v 0.330740 -2.242651 -0.827655
v 0.413824 -2.242650 -0.713298
v 0.390860 -2.483136 -0.642620
v 0.209414 -1.757348 -0.084197
v 0.232378 -1.516865 -0.154874
v 0.112136 -1.368237 -0.154875
v 0.014858 -1.516864 -0.084199
v 0.074980 -1.757350 -0.040517
v -0.330740 -1.757349 -0.172345
v -0.256426 -1.516864 -0.172345
v -0.293582 -1.368238 -0.286703
v -0.390860 -1.516864 -0.357380
v -0.413824 -1.757350 -0.286702
v -0.413824 -1.757350 -0.713298
v -0.390860 -1.516864 -0.642620
v -0.293582 -1.368238 -0.713297
v -0.256426 -1.516864 -0.827655
v -0.330740 -1.757349 -0.827655
v 0.074980 -1.757350 -0.959483
v 0.014858 -1.516864 -0.915801
v 0.112136 -1.368237 -0.845125
v 0.232378 -1.516865 -0.845126
v 0.209414 -1.757348 -0.915803
v 0.460166 -1.757354 -0.570676
v 0.400044 -1.516867 -0.614357
v 0.362887 -1.368241 -0.500000
v 0.400044 -1.516867 -0.385643
v 0.460166 -1.757354 -0.429324
v 0.037156 -1.068316 -0.614358
v -0.097279 -1.068316 -0.570676
v -0.097279 -1.068316 -0.429324
v 0.037156 -1.068316 -0.385642
v 0.120242 -1.068316 -0.500000
v 0.037654 -2.850654 -0.288630
v 0.004796 -2.719222 -0.187502
v -0.107286 -2.666112 -0.169803
v -0.187559 -2.719223 -0.250002
v -0.154702 -2.850653 -0.351129
v -0.044071 -2.918970 -0.364360
v 0.179804 -2.719222 -0.244367
v 0.093779 -2.850654 -0.306867
v 0.115383 -2.918970 -0.416170
v 0.212661 -2.850654 -0.470494
v 0.298686 -2.719221 -0.407994
v 0.280883 -2.666111 -0.295929
v 0.045410 -2.657170 -0.157994
v 0.164292 -2.657170 -0.196622
v 0.236812 -2.489821 -0.160286
v 0.197150 -2.313074 -0.095493
v 0.078269 -2.313075 -0.056867
v 0.008098 -2.489821 -0.085971
v 0.339300 -2.657169 -0.437501
v 0.339300 -2.657169 -0.562499
v 0.396268 -2.489820 -0.620242
v 0.445632 -2.313072 -0.562499
v 0.445632 -2.313072 -0.437501
v 0.396268 -2.489820 -0.379758
v 0.298686 -2.719221 -0.592006
v 0.212661 -2.850654 -0.529506
v 0.115383 -2.918970 -0.583830
v 0.093779 -2.850654 -0.693133
v 0.179804 -2.719222 -0.755633
v 0.280883 -2.666111 -0.704071
v -0.189391 -2.850653 -0.398874
v -0.295723 -2.719220 -0.398873
v -0.347191 -2.666108 -0.500000
v -0.295723 -2.719220 -0.601127
v -0.189391 -2.850653 -0.601126
v -0.142623 -2.918968 -0.500000
v -0.311236 -2.657168 -0.351129
v -0.237763 -2.657168 -0.250002
v -0.249910 -2.489821 -0.169803
v -0.323788 -2.313073 -0.187502
v -0.397260 -2.313074 -0.288629
v -0.391264 -2.489819 -0.364359
v -0.154702 -2.850653 -0.648871
v -0.187559 -2.719223 -0.749998
v -0.107286 -2.666112 -0.830197
v 0.004796 -2.719222 -0.812498
v 0.037654 -2.850654 -0.711370
v -0.044071 -2.918970 -0.635640
v -0.237763 -2.657168 -0.749998
v -0.311236 -2.657168 -0.648871
v -0.391264 -2.489819 -0.635641
v -0.397260 -2.313074 -0.711371
v -0.323788 -2.313073 -0.812498
v -0.249910 -2.489821 -0.830197
v 0.164292 -2.657170 -0.803378
v 0.045410 -2.657170 -0.842006
v 0.008098 -2.489821 -0.914029
v 0.078269 -2.313075 -0.943133
v 0.197150 -2.313074 -0.904507
v 0.236812 -2.489821 -0.839714
v 0.455221 -2.212664 -0.407993
v 0.475529 -2.000000 -0.470494
v 0.462576 -1.795430 -0.416169
v 0.422363 -1.787337 -0.306867
v 0.402056 -2.000000 -0.244366
v 0.423508 -2.204569 -0.295929
v 0.475529 -2.000000 -0.529506
v 0.455221 -2.212664 -0.592007
v 0.423508 -2.204569 -0.704071
v 0.402056 -2.000000 -0.755634
v 0.422363 -1.787337 -0.693133
v 0.462576 -1.795430 -0.583831
v 0.053166 -2.212662 -0.038628
v 0.118882 -2.000000 -0.038627
v 0.063214 -1.795430 -0.034158
v -0.053166 -1.787338 -0.038628
v -0.118882 -2.000000 -0.038627
v -0.063214 -2.204570 -0.034158
v 0.175011 -2.000000 -0.056865
v 0.228177 -2.212664 -0.095493
v 0.324957 -2.204568 -0.160284
v 0.367366 -2.000000 -0.196619
v 0.314200 -1.787337 -0.157992
v 0.222673 -1.795432 -0.085970
v -0.422363 -2.212663 -0.306867
v -0.402056 -2.000000 -0.244366
v -0.423508 -1.795431 -0.295929
v -0.455221 -1.787336 -0.407993
v -0.475529 -2.000000 -0.470494
v -0.462576 -2.204570 -0.416169
v -0.367366 -2.000000 -0.196619
v -0.314200 -2.212663 -0.157992
v -0.222673 -2.204568 -0.085970
v -0.175011 -2.000000 -0.056865
v -0.228177 -1.787336 -0.095493
v -0.324957 -1.795432 -0.160284
v -0.314200 -2.212663 -0.842008
v -0.367366 -2.000000 -0.803381
v -0.324957 -1.795432 -0.839716
v -0.228177 -1.787336 -0.904507
v -0.175011 -2.000000 -0.943135
v -0.222673 -2.204568 -0.914030
v -0.402056 -2.000000 -0.755634
v -0.422363 -2.212663 -0.693133
v -0.462576 -2.204570 -0.583831
v -0.475529 -2.000000 -0.529506
v -0.455221 -1.787336 -0.592007
v -0.423508 -1.795431 -0.704071
v 0.228177 -2.212664 -0.904507
v 0.175011 -2.000000 -0.943135
v 0.222673 -1.795432 -0.914030
v 0.314200 -1.787337 -0.842008
v 0.367366 -2.000000 -0.803381
v 0.324957 -2.204568 -0.839716
v 0.118882 -2.000000 -0.961373
v 0.053166 -2.212662 -0.961372
v -0.063214 -2.204570 -0.965842
v -0.118882 -2.000000 -0.961373
v -0.053166 -1.787338 -0.961372
v 0.063214 -1.795430 -0.965842
v 0.323788 -1.686927 -0.187502
v 0.397260 -1.686926 -0.288629
v 0.391264 -1.510182 -0.364359
v 0.311236 -1.342832 -0.351129
v 0.237763 -1.342832 -0.250002
v 0.249910 -1.510179 -0.169803
v -0.197150 -1.686926 -0.095493
v -0.078269 -1.686925 -0.056867
v -0.008098 -1.510179 -0.085971
v -0.045410 -1.342830 -0.157994
v -0.164292 -1.342830 -0.196622
v -0.236812 -1.510179 -0.160286
v -0.445632 -1.686928 -0.562499
v -0.445632 -1.686928 -0.437501
v -0.396268 -1.510180 -0.379758
v -0.339300 -1.342831 -0.437501
v -0.339300 -1.342831 -0.562499
v -0.396268 -1.510180 -0.620242
v -0.078269 -1.686925 -0.943133
v -0.197150 -1.686926 -0.904507
v -0.236812 -1.510179 -0.839714
v -0.164292 -1.342830 -0.803378
v -0.045410 -1.342830 -0.842006
v -0.008098 -1.510179 -0.914029
v 0.397260 -1.686926 -0.711371
v 0.323788 -1.686927 -0.812498
v 0.249910 -1.510179 -0.830197
v 0.237763 -1.342832 -0.749998
v 0.311236 -1.342832 -0.648871
v 0.391264 -1.510182 -0.635641
v 0.187559 -1.280777 -0.250002
v 0.154702 -1.149347 -0.351129
v 0.044071 -1.081030 -0.364360
v -0.037654 -1.149346 -0.288630
v -0.004796 -1.280778 -0.187502
v 0.107286 -1.333888 -0.169803
v 0.189391 -1.149347 -0.398874
v 0.295723 -1.280780 -0.398873
v 0.347191 -1.333892 -0.500000
v 0.295723 -1.280780 -0.601127
v 0.189391 -1.149347 -0.601126
v 0.142623 -1.081032 -0.500000
v -0.179804 -1.280778 -0.244367
v -0.093779 -1.149346 -0.306867
v -0.115383 -1.081030 -0.416170
v -0.212661 -1.149346 -0.470494
v -0.298686 -1.280779 -0.407994
v -0.280883 -1.333889 -0.295929
v -0.298686 -1.280779 -0.592006
v -0.212661 -1.149346 -0.529506
v -0.115383 -1.081030 -0.583830
v -0.093779 -1.149346 -0.693133
v -0.179804 -1.280778 -0.755633
v -0.280883 -1.333889 -0.704071
v -0.004796 -1.280778 -0.812498
v -0.037654 -1.149346 -0.711370
v 0.044071 -1.081030 -0.635640
v 0.154702 -1.149347 -0.648871
v 0.187559 -1.280777 -0.749998
v 0.107286 -1.333888 -0.830197
vn 0.5747 -0.8184 -0.0000
vn 0.9445 -0.1724 0.2797
vn -0.4650 -0.8184 -0.3378
vn 0.1776 -0.8184 -0.5466
vn 0.1776 -0.8184 0.5466
vn 0.8074 -0.0632 0.5866
vn -0.3084 -0.0632 0.9492
vn -0.9980 -0.0632 -0.0000
vn -0.3084 -0.0632 -0.9492
vn 0.8074 -0.0632 -0.5866
vn -0.0470 -0.4037 0.9137
vn -0.8835 -0.4037 0.2376
vn -0.4990 -0.4037 -0.7668
vn 0.8544 -0.4037 -0.3271
vn 0.3084 0.0632 0.9492
vn 0.0470 0.4037 0.9137
vn -0.8544 0.4037 0.3271
vn -0.5751 0.4037 -0.7115
vn 0.4990 0.4037 -0.7668
vn 0.4650 0.8184 0.3378
vn -0.6769 -0.5476 0.4918
vn 0.9980 0.0632 -0.0000
vn 0.4650 0.8184 -0.3378
vn 0.6769 0.5476 -0.4918
vn 0.3084 0.0632 -0.9492
vn -0.1776 0.8184 -0.5466
vn -0.2586 0.5476 -0.7958
vn -0.8074 0.0632 -0.5866
vn -0.5747 0.8184 -0.0000
vn -0.8367 0.5476 -0.0000
vn -0.8074 0.0632 0.5866
vn -0.1776 0.8184 0.5466
vn -0.2586 0.5476 0.7958
vn 0.9285 0.1724 -0.3288
vn 0.8835 0.4037 -0.2376
vn -0.3076 0.0951 0.9467
vn -0.0258 0.1724 -0.9847
vn 0.0470 0.4037 -0.9137
vn 0.6769 0.5476 0.4918
vn -0.9445 0.1724 -0.2797
vn -0.8544 0.4037 -0.3271
vn -0.3076 0.0951 -0.9467
vn -0.5579 0.1724 0.8118
vn -0.5751 0.4037 0.7115
vn -0.9955 0.0951 -0.0000
vn 0.5997 0.1724 0.7815
vn 0.4990 0.4037 0.7668
vn 0.8054 0.0951 -0.5851
vn 0.8835 0.4037 0.2376
vn 0.5997 0.1724 -0.7815
vn 0.8054 0.0951 0.5851
vn -0.5997 -0.1724 -0.7815
vn -0.5579 0.1724 -0.8118
vn 0.3076 -0.0951 -0.9467
vn -0.9285 -0.1724 0.3288
vn -0.9445 0.1724 0.2797
vn -0.8054 -0.0951 -0.5851
vn 0.0258 -0.1724 0.9847
vn -0.0258 0.1724 0.9847
vn 0.9955 -0.0951 -0.0000
vn 0.8544 -0.4037 0.3271
vn 0.9285 0.1724 0.3288
vn 0.2586 -0.5476 -0.7958
vn 0.5751 -0.4037 -0.7115
vn 0.5579 -0.1724 -0.8118
vn -0.6769 -0.5476 -0.4918
vn 0.0258 -0.1724 -0.9847
vn -0.0470 -0.4037 -0.9137
vn -0.8054 -0.0951 0.5851
vn -0.9285 -0.1724 -0.3288
vn -0.8835 -0.4037 -0.2376
vn 0.2586 -0.5476 0.7958
vn -0.5997 -0.1724 0.7815
vn 0.9445 -0.1724 -0.2797
vn 0.3076 -0.0951 0.9467
vn 0.5751 -0.4037 0.7115
vn -0.4990 -0.4037 0.7668
vn 0.8367 -0.5476 -0.0000
vn 0.5579 -0.1724 0.8118
vn -0.0000 -1.0000 -0.0000
vn 0.7849 -0.2425 0.5702
vn -0.2998 -0.2425 0.9227
vn -0.9701 -0.2425 -0.0000
vn -0.2998 -0.2425 -0.9227
vn 0.7849 -0.2425 -0.5702
vn 0.2998 0.2425 0.9227
vn -0.7849 0.2425 0.5702
vn -0.7849 0.2425 -0.5702
vn 0.2998 0.2425 -0.9227
vn 0.9701 0.2425 -0.0000
vn -0.0000 1.0000 -0.0000
vn -0.2402 -0.6290 0.7394
vn 0.6290 -0.6290 0.4570
vn 0.2952 -0.2952 0.9087
vn 0.9554 -0.2952 -0.0000
vn 0.6290 -0.6290 -0.4570
vn -0.7774 -0.6290 -0.0000
vn -0.7730 -0.2952 0.5616
vn -0.2402 -0.6290 -0.7394
vn -0.7730 -0.2952 -0.5616
vn 0.2952 -0.2952 -0.9087
vn 0.9511 -0.0000 0.3090
vn 0.9511 -0.0000 -0.3090
vn -0.0000 -0.0000 1.0000
vn 0.5878 -0.0000 0.8090
vn -0.9511 -0.0000 0.3090
vn -0.5878 -0.0000 0.8090
vn -0.5878 -0.0000 -0.8090
vn -0.9511 -0.0000 -0.3090
vn 0.5878 -0.0000 -0.8090
vn -0.0000 -0.0000 -1.0000
vn 0.7730 0.2952 0.5616
vn -0.2952 0.2952 0.9087
vn -0.9554 0.2952 -0.0000
vn -0.2952 0.2952 -0.9087
vn 0.7730 0.2952 -0.5616
vn 0.2402 0.6290 0.7394
vn 0.7774 0.6290 -0.0000
vn -0.6290 0.6290 0.4570
vn -0.6290 0.6290 -0.4570
vn 0.2402 0.6290 -0.7394
vn -0.4650 -0.8184 0.3378
vt 0.161027 0.036014
vt 0.929883 0.036014
vt 0.748065 0.036014
vt 0.888299 0.036014
vt 0.566247 0.036014
vt 0.706481 0.036014
vt 0.384429 0.036014
vt 0.524663 0.036014
vt 0.202611 0.036014
vt 0.342845 0.036014
vt 0.293520 0.121447
vt 0.251936 0.121447
vt 0.314313 0.157461
vt 0.293520 0.193474
vt 0.251936 0.193474
vt 0.231143 0.157461
vt 0.132495 0.157461
vt 0.111702 0.193474
vt 0.979208 0.193474
vt 0.070118 0.193474
vt 0.958416 0.157461
vt 0.111702 0.121447
vt 0.979208 0.121447
vt 0.859767 0.157461
vt 0.838974 0.193474
vt 0.797390 0.193474
vt 0.776597 0.157461
vt 0.838974 0.121447
vt 0.797390 0.121447
vt 0.677948 0.157461
vt 0.657156 0.193474
vt 0.615572 0.193474
vt 0.594779 0.157461
vt 0.657156 0.121447
vt 0.615572 0.121447
vt 0.475338 0.121447
vt 0.433754 0.121447
vt 0.496131 0.157461
vt 0.475338 0.193474
vt 0.433754 0.193474
vt 0.412961 0.157461
vt 0.202611 0.278908
vt 0.223403 0.314921
vt 0.161027 0.350935
vt 0.202611 0.350935
vt 0.140234 0.314921
vt 0.161027 0.278908
vt 0.020792 0.278908
vt 0.929883 0.278908
vt 0.041585 0.314921
vt 0.888299 0.350935
vt 0.020792 0.350935
vt 0.867506 0.314921
vt 0.888299 0.278908
vt 0.748065 0.278908
vt 0.768858 0.314921
vt 0.706481 0.350935
vt 0.748065 0.350935
vt 0.685688 0.314921
vt 0.706481 0.278908
vt 0.566247 0.278908
vt 0.587039 0.314921
vt 0.524663 0.350935
vt 0.566247 0.350935
vt 0.503871 0.314921
vt 0.524663 0.278908
vt 0.384429 0.278908
vt 0.405222 0.314921
vt 0.342845 0.350935
vt 0.384429 0.350935
vt 0.322052 0.314921
vt 0.342845 0.278908
vt 0.615571 0.436368
vt 0.475338 0.436368
vt 0.797390 0.436368
vt 0.657156 0.436368
vt 0.070117 0.436368
vt 0.838974 0.436368
vt 0.251936 0.436368
vt 0.111702 0.436368
vt 0.433754 0.436368
vt 0.293520 0.436368
vt 0.173138 0.078731
vt 0.154751 0.110578
vt 0.975338 0.114744
vt 0.115572 0.114744
vt 0.936159 0.110578
vt 0.917772 0.078731
vt 0.157157 0.042716
vt 0.933753 0.042716
vt 0.208887 0.110578
vt 0.190500 0.078731
vt 0.338975 0.042716
vt 0.206481 0.042716
vt 0.354957 0.078731
vt 0.336569 0.110578
vt 0.248066 0.114744
vt 0.297390 0.114744
vt 0.163432 0.125614
vt 0.200206 0.125614
vt 0.223404 0.157461
vt 0.200206 0.189308
vt 0.163433 0.189308
vt 0.140234 0.157461
vt 0.345250 0.125614
vt 0.382024 0.125614
vt 0.405222 0.157461
vt 0.382024 0.189308
vt 0.345250 0.189308
vt 0.322052 0.157461
vt 0.390705 0.110578
vt 0.372317 0.078731
vt 0.520793 0.042716
vt 0.388299 0.042716
vt 0.536774 0.078731
vt 0.518387 0.110578
vt 0.429884 0.114744
vt 0.479208 0.114744
vt 0.900410 0.078731
vt 0.882023 0.110578
vt 0.793520 0.114744
vt 0.842844 0.114744
vt 0.754341 0.110578
vt 0.735954 0.078731
vt 0.751935 0.042717
vt 0.884429 0.042717
vt 0.890704 0.125614
vt 0.927478 0.125614
vt 0.950675 0.157461
vt 0.927478 0.189308
vt 0.890704 0.189308
vt 0.867506 0.157461
vt 0.718592 0.078731
vt 0.700205 0.110578
vt 0.611702 0.114744
vt 0.661026 0.114744
vt 0.572523 0.110578
vt 0.554136 0.078731
vt 0.702611 0.042716
vt 0.570117 0.042716
vt 0.708886 0.125614
vt 0.745660 0.125614
vt 0.768858 0.157461
vt 0.745660 0.189308
vt 0.708886 0.189308
vt 0.685689 0.157461
vt 0.527068 0.125614
vt 0.563842 0.125614
vt 0.587039 0.157461
vt 0.563841 0.189308
vt 0.527068 0.189308
vt 0.503870 0.157461
vt 0.336569 0.204344
vt 0.354957 0.236191
vt 0.338975 0.272204
vt 0.299796 0.268038
vt 0.281409 0.236191
vt 0.297390 0.200178
vt 0.372317 0.236191
vt 0.390705 0.204344
vt 0.429884 0.200178
vt 0.445865 0.236191
vt 0.427478 0.268038
vt 0.388299 0.272204
vt 0.154751 0.204344
vt 0.173138 0.236191
vt 0.157157 0.272204
vt 0.117978 0.268037
vt 0.099591 0.236191
vt 0.115572 0.200178
vt 0.190500 0.236191
vt 0.208887 0.204344
vt 0.248065 0.200178
vt 0.264047 0.236191
vt 0.245660 0.268038
vt 0.206482 0.272204
vt 0.882023 0.204344
vt 0.900410 0.236191
vt 0.884429 0.272204
vt 0.845250 0.268038
vt 0.826863 0.236191
vt 0.842844 0.200178
vt 0.917772 0.236191
vt 0.936159 0.204344
vt 0.066247 0.200178
vt 0.975337 0.200178
vt 0.082229 0.236191
vt 0.063842 0.268038
vt 0.933754 0.272204
vt 0.024663 0.272204
vt 0.700205 0.204344
vt 0.718592 0.236191
vt 0.702610 0.272204
vt 0.663432 0.268038
vt 0.645045 0.236191
vt 0.661027 0.200178
vt 0.735954 0.236191
vt 0.754341 0.204344
vt 0.793520 0.200178
vt 0.809501 0.236191
vt 0.791114 0.268038
vt 0.751935 0.272204
vt 0.518387 0.204344
vt 0.536774 0.236191
vt 0.520792 0.272204
vt 0.481614 0.268038
vt 0.463227 0.236191
vt 0.479209 0.200178
vt 0.554136 0.236191
vt 0.572523 0.204344
vt 0.611702 0.200178
vt 0.627683 0.236191
vt 0.609296 0.268037
vt 0.570117 0.272204
vt 0.254341 0.283074
vt 0.291115 0.283074
vt 0.314313 0.314921
vt 0.291115 0.346768
vt 0.254341 0.346768
vt 0.231144 0.314921
vt 0.072523 0.283074
vt 0.109296 0.283074
vt 0.132494 0.314921
vt 0.109297 0.346768
vt 0.072523 0.346768
vt 0.049325 0.314921
vt 0.799795 0.283074
vt 0.836569 0.283074
vt 0.859767 0.314921
vt 0.836569 0.346768
vt 0.799795 0.346768
vt 0.776597 0.314921
vt 0.617977 0.283074
vt 0.654751 0.283074
vt 0.677949 0.314921
vt 0.654751 0.346768
vt 0.617977 0.346768
vt 0.594779 0.314921
vt 0.436159 0.283074
vt 0.472933 0.283074
vt 0.496130 0.314921
vt 0.472933 0.346768
vt 0.436159 0.346768
vt 0.412961 0.314921
vt 0.245660 0.361804
vt 0.264047 0.393651
vt 0.115572 0.429666
vt 0.248066 0.429666
vt 0.099590 0.393651
vt 0.117977 0.361804
vt 0.206481 0.357638
vt 0.157157 0.357638
vt 0.281409 0.393651
vt 0.299796 0.361804
vt 0.388299 0.357638
vt 0.338975 0.357638
vt 0.427478 0.361804
vt 0.445865 0.393651
vt 0.297390 0.429665
vt 0.429884 0.429665
vt 0.063842 0.361804
vt 0.082229 0.393651
vt 0.842844 0.429666
vt 0.066248 0.429666
vt 0.826862 0.393651
vt 0.845250 0.361804
vt 0.024663 0.357638
vt 0.884429 0.357638
vt 0.791114 0.361804
vt 0.809502 0.393651
vt 0.661026 0.429666
vt 0.793520 0.429666
vt 0.645045 0.393651
vt 0.663432 0.361804
vt 0.751935 0.357638
vt 0.702611 0.357638
vt 0.609296 0.361804
vt 0.627683 0.393651
vt 0.479208 0.429666
vt 0.611702 0.429666
vt 0.463227 0.393651
vt 0.481614 0.361804
vt 0.570117 0.357638
vt 0.520793 0.357638
s 0
usemtl Material.001
f 70/95/1 69/93/1 5/10/1 4/7/1 87/114/1 86/112/1
f 8/14/2 7/13/2 84/110/2 83/109/2 121/153/2 126/158/2
f 3/6/3 2/3/3 96/125/3 95/124/3 103/133/3 108/139/3
f 4/8/4 3/5/4 108/140/4 107/138/4 88/115/4 87/113/4
f 1/1/5 5/9/5 69/94/5 68/92/5 61/83/5 66/89/5
f 9/15/6 8/14/6 126/158/6 125/157/6 142/174/6 141/173/6
f 13/20/7 12/18/7 138/170/7 137/169/7 154/187/7 153/185/7
f 18/26/8 17/25/8 150/182/8 149/181/8 166/200/8 165/199/8
f 23/32/9 22/31/9 162/196/9 161/195/9 178/212/9 177/211/9
f 29/40/10 28/39/10 174/208/10 173/207/10 130/162/10 129/161/10
f 63/86/11 62/84/11 73/99/11 78/104/11 11/17/11 15/22/11
f 93/122/12 92/120/12 97/127/12 102/132/12 16/24/12 20/28/12
f 105/136/13 104/134/13 109/141/13 114/146/13 21/30/13 25/34/13
f 81/107/14 80/106/14 85/111/14 90/117/14 26/37/14 30/41/14
f 135/167/15 134/166/15 139/171/15 144/176/15 31/42/15 35/47/15
f 190/224/16 189/223/16 34/46/16 33/44/16 216/252/16 215/250/16
f 196/230/17 195/229/17 39/53/17 38/51/17 228/268/17 227/266/17
f 202/236/18 201/235/18 44/59/18 43/57/18 234/276/18 233/274/18
f 208/242/19 207/241/19 49/65/19 48/63/19 240/284/19 239/282/19
f 213/248/20 212/246/20 217/253/20 222/259/20 60/82/20 59/79/20
f 92/120/21 91/119/21 65/88/21 64/87/21 98/128/21 97/127/21
f 123/155/22 122/154/22 127/159/22 132/164/22 51/67/22 55/72/22
f 222/260/23 221/258/23 238/281/23 237/279/23 56/74/23 60/81/23
f 221/258/24 220/257/24 209/243/24 208/242/24 239/282/24 238/281/24
f 171/205/25 170/204/25 175/209/25 180/214/25 46/61/25 50/66/25
f 237/280/26 236/278/26 232/273/26 231/271/26 57/76/26 56/73/26
f 236/278/27 235/277/27 203/237/27 202/236/27 233/274/27 232/273/27
f 159/193/28 158/192/28 163/197/28 168/202/28 41/55/28 45/60/28
f 231/272/29 230/270/29 226/265/29 225/263/29 58/78/29 57/75/29
f 230/270/30 229/269/30 197/231/30 196/230/30 227/266/30 226/265/30
f 147/179/31 146/178/31 151/183/31 156/189/31 36/49/31 40/54/31
f 225/264/32 224/262/32 214/249/32 213/247/32 59/80/32 58/77/32
f 224/262/33 223/261/33 191/225/33 190/224/33 215/250/33 214/249/33
f 132/164/34 131/163/34 205/239/34 210/244/34 52/68/34 51/67/34
f 53/70/35 52/68/35 210/244/35 209/243/35 220/257/35 219/255/35
f 155/188/36 154/187/36 137/169/36 136/168/36 188/222/36 187/221/36
f 180/214/37 179/213/37 199/233/37 204/238/37 47/62/37 46/61/37
f 48/64/38 47/62/38 204/238/38 203/237/38 235/277/38 240/283/38
f 212/246/39 211/245/39 185/219/39 184/218/39 218/254/39 217/253/39
f 168/202/40 167/201/40 193/227/40 198/232/40 42/56/40 41/55/40
f 43/58/41 42/56/41 198/232/41 197/231/41 229/269/41 234/275/41
f 179/213/42 178/212/42 161/195/42 160/194/42 200/234/42 199/233/42
f 156/190/43 155/188/43 187/221/43 192/226/43 37/50/43 36/48/43
f 38/52/44 37/50/44 192/226/44 191/225/44 223/261/44 228/267/44
f 167/201/45 166/200/45 149/181/45 148/180/45 194/228/45 193/227/45
f 144/176/46 143/175/46 181/215/46 186/220/46 32/43/46 31/42/46
f 33/45/47 32/43/47 186/220/47 185/219/47 211/245/47 216/251/47
f 131/163/48 130/162/48 173/207/48 172/206/48 206/240/48 205/239/48
f 184/218/49 183/217/49 54/71/49 53/69/49 219/256/49 218/254/49
f 172/206/50 171/205/50 50/66/50 49/65/50 207/241/50 206/240/50
f 143/175/51 142/174/51 125/157/51 124/156/51 182/216/51 181/215/51
f 22/31/52 21/30/52 114/146/52 113/145/52 157/191/52 162/196/52
f 160/194/53 159/193/53 45/60/53 44/59/53 201/235/53 200/234/53
f 170/204/54 169/203/54 119/151/54 118/150/54 176/210/54 175/209/54
f 17/25/55 16/24/55 102/132/55 101/131/55 145/177/55 150/182/55
f 148/180/56 147/179/56 40/54/56 39/53/56 195/229/56 194/228/56
f 158/192/57 157/191/57 113/145/57 112/144/57 164/198/57 163/197/57
f 12/18/58 11/17/58 78/104/58 77/103/58 133/165/58 138/170/58
f 136/168/59 135/167/59 35/47/59 34/46/59 189/223/59 188/222/59
f 122/154/60 121/153/60 83/109/60 82/108/60 128/160/60 127/159/60
f 7/13/61 6/11/61 72/98/61 71/96/61 79/105/61 84/110/61
f 124/156/62 123/155/62 55/72/62 54/71/62 183/217/62 182/216/62
f 89/116/63 88/115/63 107/138/63 106/137/63 116/148/63 115/147/63
f 90/118/64 89/116/64 115/147/64 120/152/64 27/38/64 26/36/64
f 28/39/65 27/38/65 120/152/65 119/151/65 169/203/65 174/208/65
f 104/134/66 103/133/66 95/124/66 94/123/66 110/142/66 109/141/66
f 118/150/67 117/149/67 24/33/67 23/32/67 177/211/67 176/210/67
f 106/137/68 105/135/68 25/35/68 24/33/68 117/149/68 116/148/68
f 146/178/69 145/177/69 101/131/69 100/130/69 152/184/69 151/183/69
f 112/144/70 111/143/70 19/27/70 18/26/70 165/199/70 164/198/70
f 94/123/71 93/121/71 20/29/71 19/27/71 111/143/71 110/142/71
f 62/84/72 61/83/72 68/92/72 67/91/72 74/100/72 73/99/72
f 100/130/73 99/129/73 14/21/73 13/19/73 153/186/73 152/184/73
f 82/108/74 81/107/74 30/41/74 29/40/74 129/161/74 128/160/74
f 134/166/75 133/165/75 77/103/75 76/102/75 140/172/75 139/171/75
f 67/91/76 72/97/76 6/12/76 10/16/76 75/101/76 74/100/76
f 64/87/77 63/85/77 15/23/77 14/21/77 99/129/77 98/128/77
f 80/106/78 79/105/78 71/96/78 70/95/78 86/112/78 85/111/78
f 76/102/79 75/101/79 10/16/79 9/15/79 141/173/79 140/172/79
f 1/1/80 2/4/80 3/6/80 4/8/80 5/10/80
f 6/12/81 7/13/81 8/14/81 9/15/81 10/16/81
f 11/17/82 12/18/82 13/20/82 14/21/82 15/23/82
f 16/24/83 17/25/83 18/26/83 19/27/83 20/29/83
f 21/30/84 22/31/84 23/32/84 24/33/84 25/35/84
f 26/37/85 27/38/85 28/39/85 29/40/85 30/41/85
f 31/42/86 32/43/86 33/45/86 34/46/86 35/47/86
f 36/49/87 37/50/87 38/52/87 39/53/87 40/54/87
f 41/55/88 42/56/88 43/58/88 44/59/88 45/60/88
f 46/61/89 47/62/89 48/64/89 49/65/89 50/66/89
f 51/67/90 52/68/90 53/70/90 54/71/90 55/72/90
f 56/74/91 57/76/91 58/78/91 59/80/91 60/82/91
f 61/83/92 62/84/92 63/86/92 64/87/92 65/88/92 66/90/92
f 67/91/93 68/92/93 69/94/93 70/95/93 71/96/93 72/98/93
f 73/99/94 74/100/94 75/101/94 76/102/94 77/103/94 78/104/94
f 79/105/95 80/106/95 81/107/95 82/108/95 83/109/95 84/110/95
f 85/111/96 86/112/96 87/114/96 88/115/96 89/116/96 90/118/96
f 91/119/97 92/120/97 93/122/97 94/123/97 95/124/97 96/125/97
f 97/127/98 98/128/98 99/129/98 100/130/98 101/131/98 102/132/98
f 103/133/99 104/134/99 105/136/99 106/137/99 107/138/99 108/140/99
f 109/141/100 110/142/100 111/143/100 112/144/100 113/145/100 114/146/100
f 115/147/101 116/148/101 117/149/101 118/150/101 119/151/101 120/152/101
f 121/153/102 122/154/102 123/155/102 124/156/102 125/157/102 126/158/102
f 127/159/103 128/160/103 129/161/103 130/162/103 131/163/103 132/164/103
f 133/165/104 134/166/104 135/167/104 136/168/104 137/169/104 138/170/104
f 139/171/105 140/172/105 141/173/105 142/174/105 143/175/105 144/176/105
f 145/177/106 146/178/106 147/179/106 148/180/106 149/181/106 150/182/106
f 151/183/107 152/184/107 153/186/107 154/187/107 155/188/107 156/190/107
f 157/191/108 158/192/108 159/193/108 160/194/108 161/195/108 162/196/108
f 163/197/109 164/198/109 165/199/109 166/200/109 167/201/109 168/202/109
f 169/203/110 170/204/110 171/205/110 172/206/110 173/207/110 174/208/110
f 175/209/111 176/210/111 177/211/111 178/212/111 179/213/111 180/214/111
f 181/215/112 182/216/112 183/217/112 184/218/112 185/219/112 186/220/112
f 187/221/113 188/222/113 189/223/113 190/224/113 191/225/113 192/226/113
f 193/227/114 194/228/114 195/229/114 196/230/114 197/231/114 198/232/114
f 199/233/115 200/234/115 201/235/115 202/236/115 203/237/115 204/238/115
f 205/239/116 206/240/116 207/241/116 208/242/116 209/243/116 210/244/116
f 211/245/117 212/246/117 213/248/117 214/249/117 215/250/117 216/252/117
f 217/253/118 218/254/118 219/256/118 220/257/118 221/258/118 222/260/118
f 223/261/119 224/262/119 225/264/119 226/265/119 227/266/119 228/268/119
f 229/269/120 230/270/120 231/272/120 232/273/120 233/274/120 234/276/120
f 235/277/121 236/278/121 237/280/121 238/281/121 239/282/121 240/284/121
f 2/4/122 1/2/122 66/90/122 65/88/122 91/119/122 96/126/122
