# Blender 3.4.1
# www.blender.org
mtllib Tile1_M.mtl
o Cube
v -0.094568 -0.270529 -0.000058
v -0.521345 -0.270529 -0.176834
v -0.667791 -0.270529 -0.323281
v -0.844568 -0.270529 -0.750058
v -0.844568 1.729471 -0.750058
v -0.667791 1.729471 -0.323281
v -0.521345 1.729471 -0.176834
v -0.094568 1.729471 -0.000058
v -0.844568 -0.270529 -1.250058
v -0.667791 -0.270529 -1.676834
v -0.521345 -0.270529 -1.823281
v -0.094568 -0.270529 -2.000058
v -0.094568 1.729471 -2.000058
v -0.521345 1.729471 -1.823281
v -0.667791 1.729471 -1.676834
v -0.844568 1.729471 -1.250058
v 1.155432 -0.270529 -0.750058
v 0.978655 -0.270529 -0.323281
v 0.832209 -0.270529 -0.176834
v 0.405432 -0.270529 -0.000058
v 0.405432 1.729471 -0.000058
v 0.832209 1.729471 -0.176834
v 0.978655 1.729471 -0.323281
v 1.155432 1.729471 -0.750058
v 0.405432 -0.270529 -2.000058
v 0.832209 -0.270529 -1.823281
v 0.978655 -0.270529 -1.676834
v 1.155432 -0.270529 -1.250058
v 1.155432 1.729471 -1.250058
v 0.978655 1.729471 -1.676834
v 0.832209 1.729471 -1.823281
v 0.405432 1.729471 -2.000058
vn -1.0000 -0.0000 -0.0000
vn 0.7071 -0.0000 -0.7071
vn -0.7071 -0.0000 -0.7071
vn -0.0000 1.0000 -0.0000
vn 0.7071 -0.0000 0.7071
vn -0.0000 -0.0000 1.0000
vn -0.0000 -0.0000 -1.0000
vn 1.0000 -0.0000 -0.0000
vn -0.7071 -0.0000 0.7071
vn -0.3827 -0.0000 0.9239
vn -0.9239 -0.0000 0.3827
vn -0.3827 -0.0000 -0.9239
vn -0.9239 -0.0000 -0.3827
vn 0.9239 -0.0000 -0.3827
vn 0.3827 -0.0000 -0.9239
vn 0.3827 -0.0000 0.9239
vn 0.9239 -0.0000 0.3827
vn -0.0000 -1.0000 -0.0000
vt 0.035717 0.315762
vt 0.964022 0.314190
vt 0.498803 0.146157
vt 0.941387 0.314229
vt 0.521129 0.092095
vt 0.922635 0.314260
vt 0.539652 0.073533
vt 0.867990 0.314353
vt 0.593667 0.051092
vt 0.592475 0.988808
vt 0.868262 0.721842
vt 0.538413 0.966482
vt 0.922908 0.721749
vt 0.519850 0.947959
vt 0.941659 0.721717
vt 0.497410 0.893945
vt 0.035989 0.723251
vt 0.964294 0.721679
vt 0.803969 0.314461
vt 0.656976 0.051024
vt 0.726689 0.314592
vt 0.711038 0.073350
vt 0.689186 0.314656
vt 0.729601 0.091874
vt 0.611906 0.314787
vt 0.752042 0.145888
vt 0.750648 0.893675
vt 0.612178 0.722275
vt 0.728322 0.947737
vt 0.689458 0.722144
vt 0.709799 0.966300
vt 0.726961 0.722081
vt 0.655785 0.988741
vt 0.804241 0.721950
vt 0.589801 0.315329
vt 0.360617 0.315460
vt 0.536971 0.289128
vt 0.256921 0.315523
vt 0.519724 0.267377
vt 0.099738 0.315654
vt 0.498871 0.209467
vt 0.497342 0.830635
vt 0.100010 0.723143
vt 0.520203 0.772072
vt 0.284063 0.723012
vt 0.539169 0.749780
vt 0.410020 0.722948
vt 0.594073 0.722817
vt 0.525885 0.314895
vt 0.752109 0.209198
vt 0.556508 0.315026
vt 0.728699 0.267126
vt 0.633199 0.315089
vt 0.709277 0.288892
vt 0.651822 0.315220
vt 0.658094 0.722709
vt 0.711474 0.749545
vt 0.628601 0.722578
vt 0.729178 0.771821
vt 0.577650 0.722515
vt 0.750581 0.830365
vt 0.548157 0.722384
s 0
usemtl Material.002
f 4/8/1 5/11/1 16/34/1 9/19/1
f 30/58/2 27/53/2 26/51/2 31/60/2
f 14/30/3 11/23/3 10/21/3 15/32/3
f 29/56/4 30/57/4 31/59/4 32/61/4 13/27/4 14/29/4 15/31/4 16/33/4 5/10/4 6/12/4 7/14/4 8/16/4 21/42/4 22/44/4 23/46/4 24/48/4
f 22/45/5 19/38/5 18/36/5 23/47/5
f 20/40/6 21/43/6 8/17/6 1/1/6
f 12/25/7 13/28/7 32/62/7 25/49/7
f 28/55/8 29/56/8 24/48/8 17/35/8
f 2/4/9 7/15/9 6/13/9 3/6/9
f 1/2/10 8/18/10 7/15/10 2/4/10
f 5/11/11 4/8/11 3/6/11 6/13/11
f 13/28/12 12/25/12 11/23/12 14/30/12
f 9/19/13 16/34/13 15/32/13 10/21/13
f 29/56/14 28/55/14 27/53/14 30/58/14
f 25/49/15 32/62/15 31/60/15 26/51/15
f 21/43/16 20/40/16 19/38/16 22/45/16
f 17/35/17 24/48/17 23/47/17 18/36/17
f 9/20/18 10/22/18 11/24/18 12/26/18 25/50/18 26/52/18 27/54/18 28/55/18 17/35/18 18/37/18 19/39/18 20/41/18 1/3/18 2/5/18 3/7/18 4/9/18
