# Blender 3.4.1
# www.blender.org
mtllib Enemy1.mtl
o Icosphere
v 0.793605 0.796273 -0.321420
v 1.517213 1.349054 0.204305
v 0.517217 1.349053 0.529229
v -0.100821 1.349058 -0.321420
v 0.517217 1.349053 -1.172069
v 1.517213 1.349054 -0.847145
v 1.069993 2.243493 0.529229
v 0.069998 2.243493 0.204305
v 0.069998 2.243493 -0.847145
v 1.069993 2.243493 -1.172069
v 1.688032 2.243489 -0.321420
v 0.793605 2.796273 -0.321420
v 0.631150 0.945619 0.178575
v 1.218928 0.945619 -0.012409
v 1.056474 1.270536 0.487591
v 1.644253 1.270537 -0.321420
v 1.218928 0.945619 -0.630432
v 0.267876 0.945622 -0.321420
v 0.105416 1.270537 0.178577
v 0.631150 0.945619 -0.821415
v 0.105416 1.270537 -0.821417
v 1.056474 1.270536 -1.130432
v 1.744663 1.796273 -0.012408
v 1.744663 1.796273 -0.630433
v 0.793605 1.796273 0.678580
v 1.381391 1.796273 0.487597
v -0.157453 1.796273 -0.012408
v 0.205820 1.796273 0.487597
v 0.205820 1.796273 -1.130437
v -0.157453 1.796273 -0.630433
v 1.381391 1.796273 -1.130437
v 0.793605 1.796273 -1.321420
v 1.481795 2.322010 0.178577
v 0.530737 2.322011 0.487591
v -0.057043 2.322009 -0.321420
v 0.530737 2.322011 -1.130432
v 1.481795 2.322010 -0.821417
v 0.956061 2.646928 0.178575
v 1.319335 2.646925 -0.321420
v 0.368283 2.646927 -0.012409
v 0.368283 2.646927 -0.630432
v 0.956061 2.646928 -0.821415
v 0.631150 0.945619 0.178575
v 0.793605 0.796273 -0.321420
v 1.218928 0.945619 -0.012409
v 1.517213 1.349054 0.204305
v 1.056474 1.270536 0.487591
v 0.517217 1.349053 0.529229
v 1.644253 1.270537 -0.321420
v 1.218928 0.945619 -0.630432
v 1.517213 1.349054 -0.847145
v 0.267876 0.945622 -0.321420
v 0.105416 1.270537 0.178577
v -0.100821 1.349058 -0.321420
v 0.631150 0.945619 -0.821415
v 0.105416 1.270537 -0.821417
v 0.517217 1.349053 -1.172069
v 1.056474 1.270536 -1.130432
v 1.744663 1.796273 -0.012408
v 1.744663 1.796273 -0.630433
v 1.688032 2.243489 -0.321420
v 0.793605 1.796273 0.678580
v 1.381391 1.796273 0.487597
v 1.069993 2.243493 0.529229
v -0.157453 1.796273 -0.012408
v 0.205820 1.796273 0.487597
v 0.069998 2.243493 0.204305
v 0.205820 1.796273 -1.130437
v -0.157453 1.796273 -0.630433
v 0.069998 2.243493 -0.847145
v 1.381391 1.796273 -1.130437
v 0.793605 1.796273 -1.321420
v 1.069993 2.243493 -1.172069
v 1.481795 2.322010 0.178577
v 0.530737 2.322011 0.487591
v -0.057043 2.322009 -0.321420
v 0.530737 2.322011 -1.130432
v 1.481795 2.322010 -0.821417
v 0.956061 2.646928 0.178575
v 1.319335 2.646925 -0.321420
v 0.793605 2.796273 -0.321420
v 0.368283 2.646927 -0.012409
v 0.368283 2.646927 -0.630432
v 0.956061 2.646928 -0.821415
v 0.631150 0.945619 0.178575
v 0.793605 0.796273 -0.321420
v 1.218928 0.945619 -0.012409
v 1.517213 1.349054 0.204305
v 1.056474 1.270536 0.487591
v 0.517217 1.349053 0.529229
v 1.644253 1.270537 -0.321420
v 1.218928 0.945619 -0.630432
v 1.517213 1.349054 -0.847145
v 0.267876 0.945622 -0.321420
v 0.105416 1.270537 0.178577
v -0.100821 1.349058 -0.321420
v 0.631150 0.945619 -0.821415
v 0.105416 1.270537 -0.821417
v 0.517217 1.349053 -1.172069
v 1.056474 1.270536 -1.130432
v 1.744663 1.796273 -0.012408
v 1.744663 1.796273 -0.630433
v 1.688032 2.243489 -0.321420
v 0.793605 1.796273 0.678580
v 1.381391 1.796273 0.487597
v 1.069993 2.243493 0.529229
v -0.157453 1.796273 -0.012408
v 0.205820 1.796273 0.487597
v 0.069998 2.243493 0.204305
v 0.205820 1.796273 -1.130437
v -0.157453 1.796273 -0.630433
v 0.069998 2.243493 -0.847145
v 1.381391 1.796273 -1.130437
v 0.793605 1.796273 -1.321420
v 1.069993 2.243493 -1.172069
v 1.481795 2.322010 0.178577
v 0.530737 2.322011 0.487591
v -0.057043 2.322009 -0.321420
v 0.530737 2.322011 -1.130432
v 1.481795 2.322010 -0.821417
v 0.956061 2.646928 0.178575
v 1.319335 2.646925 -0.321420
v 0.793605 2.796273 -0.321420
v 0.368283 2.646927 -0.012409
v 0.368283 2.646927 -0.630432
v 0.956061 2.646928 -0.821415
vn -0.1024 0.9435 -0.3151
vn -0.7002 0.6617 -0.2680
vn 0.2680 0.9435 -0.1947
vn 0.2680 0.9435 0.1947
vn -0.1024 0.9435 0.3151
vn -0.9050 0.3304 -0.2680
vn -0.0247 0.3304 -0.9435
vn 0.8897 0.3304 -0.3151
vn 0.5746 0.3304 0.7488
vn -0.5346 0.3304 0.7779
vn -0.8026 0.1256 -0.5831
vn 0.3066 0.1256 -0.9435
vn 0.9921 0.1256 -0.0000
vn 0.3066 0.1256 0.9435
vn -0.8026 0.1256 0.5831
vn -0.4089 -0.6617 -0.6284
vn 0.4713 -0.6617 -0.5831
vn 0.7002 -0.6617 0.2680
vn -0.0385 -0.6617 0.7488
vn -0.7240 -0.6617 0.1947
vn -0.2680 -0.9435 0.1947
vn -0.4911 -0.7947 0.3568
vn -0.4089 -0.6617 0.6284
vn 0.1024 -0.9435 0.3151
vn 0.1876 -0.7947 0.5773
vn 0.4713 -0.6617 0.5831
vn 0.3313 -0.9435 -0.0000
vn 0.6071 -0.7947 -0.0000
vn 0.7002 -0.6617 -0.2680
vn 0.1024 -0.9435 -0.3151
vn 0.1876 -0.7947 -0.5773
vn -0.0385 -0.6617 -0.7488
vn -0.2680 -0.9435 -0.1947
vn -0.4911 -0.7947 -0.3568
vn -0.7240 -0.6617 -0.1947
vn -0.8897 -0.3304 0.3151
vn -0.7947 -0.1876 0.5773
vn -0.5746 -0.3304 0.7488
vn 0.0247 -0.3304 0.9435
vn 0.3035 -0.1876 0.9342
vn 0.5346 -0.3304 0.7779
vn 0.9050 -0.3304 0.2680
vn 0.9822 -0.1876 -0.0000
vn 0.9050 -0.3304 -0.2680
vn 0.5346 -0.3304 -0.7779
vn 0.3035 -0.1876 -0.9342
vn 0.0247 -0.3304 -0.9435
vn -0.5746 -0.3304 -0.7488
vn -0.7947 -0.1876 -0.5773
vn -0.8897 -0.3304 -0.3151
vn -0.3066 -0.1256 0.9435
vn -0.3035 0.1876 0.9342
vn -0.0247 0.3304 0.9435
vn 0.8026 -0.1256 0.5831
vn 0.7947 0.1876 0.5773
vn 0.8897 0.3304 0.3151
vn 0.8026 -0.1256 -0.5831
vn 0.7947 0.1876 -0.5773
vn 0.5746 0.3304 -0.7488
vn -0.3066 -0.1256 -0.9435
vn -0.3035 0.1876 -0.9342
vn -0.5346 0.3304 -0.7779
vn -0.9921 -0.1256 -0.0000
vn -0.9822 0.1876 -0.0000
vn -0.9050 0.3304 0.2680
vn -0.4713 0.6617 0.5831
vn -0.1876 0.7947 0.5773
vn 0.0385 0.6617 0.7488
vn 0.4089 0.6617 0.6284
vn 0.4911 0.7947 0.3568
vn 0.7240 0.6617 0.1947
vn 0.7240 0.6617 -0.1947
vn 0.4911 0.7947 -0.3568
vn 0.4089 0.6617 -0.6284
vn -0.7002 0.6617 0.2680
vn -0.6071 0.7947 -0.0000
vn -0.3313 0.9435 -0.0000
vn 0.0385 0.6617 -0.7488
vn -0.1876 0.7947 -0.5773
vn -0.4713 0.6617 -0.5831
vt 0.500000 0.500000
vt 0.237137 0.276390
vt 0.861804 0.276390
vt 0.861804 0.237137
vt 0.361806 0.074675
vt 0.361806 0.276390
vt 0.500000 0.276392
vt 0.361806 0.276390
vt 0.361806 0.925325
vt 0.861804 0.276390
vt 0.861804 0.762863
vt 0.762863 0.276390
vt 0.638194 0.074675
vt 0.638194 0.723610
vt 0.138196 0.237137
vt 0.138196 0.723610
vt 0.237137 0.723610
vt 0.138196 0.762863
vt 0.138196 0.723610
vt 0.762863 0.723610
vt 0.638194 0.925325
vt 0.638194 0.723610
vt 0.500000 0.723608
vt 0.500000 0.500000
vt 0.418772 0.074673
vt 0.418772 0.250002
vt 0.345494 0.074673
vt 0.712661 0.345494
vt 0.631434 0.237131
vt 0.631434 0.095494
vt 0.500000 0.237132
vt 0.925324 0.500000
vt 0.654506 0.074673
vt 0.712661 0.654506
vt 0.500000 0.074674
vt 0.237135 0.500000
vt 0.155905 0.237132
vt 0.250002 0.237132
vt 0.155905 0.250002
vt 0.418772 0.074673
vt 0.418772 0.749998
vt 0.155905 0.237132
vt 0.155905 0.749998
vt 0.749998 0.237132
vt 0.631434 0.904506
vt 0.631434 0.237131
vt 0.345494 0.500000
vt 0.654506 0.500000
vt 0.500000 0.500000
vt 0.095492 0.500000
vt 0.793893 0.500000
vt 0.345494 0.500000
vt 0.095492 0.500000
vt 0.206107 0.500000
vt 0.206107 0.500000
vt 0.904508 0.500000
vt 0.654506 0.500000
vt 0.904508 0.500000
vt 0.793893 0.500000
vt 0.500000 0.500000
vt 0.844095 0.250002
vt 0.844095 0.762868
vt 0.250002 0.762868
vt 0.368566 0.095494
vt 0.368566 0.762869
vt 0.074676 0.500000
vt 0.500000 0.762868
vt 0.368566 0.904506
vt 0.368566 0.762869
vt 0.844095 0.749998
vt 0.749998 0.762868
vt 0.844095 0.762868
vt 0.581228 0.925327
vt 0.581228 0.250002
vt 0.762865 0.500000
vt 0.500000 0.925326
vt 0.345494 0.925327
vt 0.287339 0.345494
vt 0.654506 0.925327
vt 0.287339 0.654506
vt 0.581228 0.925327
vt 0.581228 0.749998
vt 0.418772 0.074673
vt 0.418772 0.250002
vt 0.500000 0.500000
vt 0.345494 0.074673
vt 0.712661 0.345494
vt 0.237137 0.276390
vt 0.861804 0.276390
vt 0.861804 0.237137
vt 0.631434 0.237131
vt 0.631434 0.095494
vt 0.361806 0.074675
vt 0.361806 0.276390
vt 0.500000 0.237132
vt 0.925324 0.500000
vt 0.654506 0.074673
vt 0.712661 0.654506
vt 0.861804 0.276390
vt 0.861804 0.762863
vt 0.762863 0.276390
vt 0.500000 0.074674
vt 0.237135 0.500000
vt 0.155905 0.237132
vt 0.250002 0.237132
vt 0.155905 0.250002
vt 0.500000 0.276392
vt 0.418772 0.074673
vt 0.418772 0.749998
vt 0.155905 0.237132
vt 0.155905 0.749998
vt 0.749998 0.237132
vt 0.361806 0.276390
vt 0.361806 0.925325
vt 0.631434 0.904506
vt 0.631434 0.237131
vt 0.345494 0.500000
vt 0.654506 0.500000
vt 0.500000 0.723608
vt 0.500000 0.500000
vt 0.095492 0.500000
vt 0.793893 0.500000
vt 0.638194 0.074675
vt 0.638194 0.723610
vt 0.345494 0.500000
vt 0.095492 0.500000
vt 0.206107 0.500000
vt 0.138196 0.237137
vt 0.138196 0.723610
vt 0.237137 0.723610
vt 0.206107 0.500000
vt 0.904508 0.500000
vt 0.654506 0.500000
vt 0.138196 0.762863
vt 0.138196 0.723610
vt 0.762863 0.723610
vt 0.904508 0.500000
vt 0.793893 0.500000
vt 0.500000 0.500000
vt 0.638194 0.925325
vt 0.638194 0.723610
vt 0.844095 0.250002
vt 0.844095 0.762868
vt 0.250002 0.762868
vt 0.368566 0.095494
vt 0.368566 0.762869
vt 0.074676 0.500000
vt 0.500000 0.762868
vt 0.368566 0.904506
vt 0.368566 0.762869
vt 0.844095 0.749998
vt 0.749998 0.762868
vt 0.844095 0.762868
vt 0.581228 0.925327
vt 0.581228 0.250002
vt 0.762865 0.500000
vt 0.500000 0.925326
vt 0.500000 0.500000
vt 0.345494 0.925327
vt 0.287339 0.345494
vt 0.654506 0.925327
vt 0.287339 0.654506
vt 0.581228 0.925327
vt 0.581228 0.749998
vt 0.418772 0.074673
vt 0.418772 0.250002
vt 0.500000 0.500000
vt 0.345494 0.074673
vt 0.712661 0.345494
vt 0.237137 0.276390
vt 0.861804 0.276390
vt 0.861804 0.237137
vt 0.631434 0.237131
vt 0.631434 0.095494
vt 0.361806 0.074675
vt 0.361806 0.276390
vt 0.500000 0.237132
vt 0.925324 0.500000
vt 0.654506 0.074673
vt 0.712661 0.654506
vt 0.861804 0.276390
vt 0.861804 0.762863
vt 0.762863 0.276390
vt 0.500000 0.074674
vt 0.237135 0.500000
vt 0.155905 0.237132
vt 0.250002 0.237132
vt 0.155905 0.250002
vt 0.500000 0.276392
vt 0.418772 0.074673
vt 0.418772 0.749998
vt 0.155905 0.237132
vt 0.155905 0.749998
vt 0.749998 0.237132
vt 0.361806 0.276390
vt 0.361806 0.925325
vt 0.631434 0.904506
vt 0.631434 0.237131
vt 0.345494 0.500000
vt 0.654506 0.500000
vt 0.500000 0.723608
vt 0.500000 0.500000
vt 0.095492 0.500000
vt 0.793893 0.500000
vt 0.638194 0.074675
vt 0.638194 0.723610
vt 0.345494 0.500000
vt 0.095492 0.500000
vt 0.206107 0.500000
vt 0.138196 0.237137
vt 0.138196 0.723610
vt 0.237137 0.723610
vt 0.206107 0.500000
vt 0.904508 0.500000
vt 0.654506 0.500000
vt 0.138196 0.762863
vt 0.138196 0.723610
vt 0.762863 0.723610
vt 0.904508 0.500000
vt 0.793893 0.500000
vt 0.500000 0.500000
vt 0.638194 0.925325
vt 0.638194 0.723610
vt 0.844095 0.250002
vt 0.844095 0.762868
vt 0.250002 0.762868
vt 0.368566 0.095494
vt 0.368566 0.762869
vt 0.074676 0.500000
vt 0.500000 0.762868
vt 0.368566 0.904506
vt 0.368566 0.762869
vt 0.844095 0.749998
vt 0.749998 0.762868
vt 0.844095 0.762868
vt 0.581228 0.925327
vt 0.581228 0.250002
vt 0.762865 0.500000
vt 0.500000 0.925326
vt 0.500000 0.500000
vt 0.345494 0.925327
vt 0.287339 0.345494
vt 0.654506 0.925327
vt 0.287339 0.654506
vt 0.581228 0.925327
vt 0.581228 0.749998
s 0
usemtl Material.001
f 1/1/1 13/26/1 14/28/1
f 2/2/2 16/31/2 14/27/2
f 1/1/3 18/36/3 13/26/3
f 1/1/4 20/41/4 18/36/4
f 1/1/5 17/34/5 20/41/5
f 2/2/6 23/47/6 16/31/6
f 3/6/7 25/49/7 15/29/7
f 4/7/8 27/52/8 19/38/8
f 5/8/9 29/55/9 21/42/9
f 6/10/10 31/59/10 22/46/10
f 2/2/11 26/50/11 23/47/11
f 3/6/12 28/54/12 25/49/12
f 4/7/13 30/57/13 27/52/13
f 5/8/14 32/60/14 29/55/14
f 6/12/15 24/48/15 31/58/15
f 7/13/16 38/74/16 33/61/16
f 8/15/17 40/78/17 34/64/17
f 9/20/18 41/79/18 35/67/18
f 10/22/19 42/81/19 36/69/19
f 11/23/20 39/76/20 37/71/20
f 39/75/21 12/24/21 42/82/21
f 39/75/22 42/82/22 37/70/22
f 37/70/23 42/82/23 10/21/23
f 42/82/24 12/24/24 41/80/24
f 42/82/25 41/80/25 36/68/25
f 36/68/26 41/80/26 9/18/26
f 41/80/27 12/24/27 40/78/27
f 41/80/28 40/78/28 35/66/28
f 35/67/29 40/77/29 8/17/29
f 40/78/30 12/24/30 38/74/30
f 40/78/31 38/74/31 34/64/31
f 34/65/32 38/73/32 7/14/32
f 38/74/33 12/24/33 39/75/33
f 38/74/34 39/75/34 33/61/34
f 33/63/35 39/76/35 11/23/35
f 24/48/36 11/23/36 37/71/36
f 24/48/37 37/71/37 31/58/37
f 31/59/38 37/72/38 10/22/38
f 32/60/39 10/22/39 36/69/39
f 32/60/40 36/69/40 29/55/40
f 29/55/41 36/69/41 9/19/41
f 30/57/42 9/20/42 35/67/42
f 30/57/43 35/67/43 27/52/43
f 27/52/44 35/67/44 8/17/44
f 28/54/45 8/16/45 34/65/45
f 28/54/46 34/65/46 25/49/46
f 25/49/47 34/65/47 7/14/47
f 26/51/48 7/14/48 33/62/48
f 26/50/49 33/63/49 23/47/49
f 23/47/50 33/63/50 11/23/50
f 31/59/51 10/22/51 32/60/51
f 31/59/52 32/60/52 22/46/52
f 22/46/53 32/60/53 5/8/53
f 29/56/54 9/20/54 30/57/54
f 29/56/55 30/57/55 21/44/55
f 21/44/56 30/57/56 4/7/56
f 27/52/57 8/17/57 28/53/57
f 27/52/58 28/53/58 19/38/58
f 19/37/59 28/54/59 3/6/59
f 25/49/60 7/14/60 26/51/60
f 25/49/61 26/51/61 15/29/61
f 15/29/62 26/51/62 2/3/62
f 23/47/63 11/23/63 24/48/63
f 23/47/64 24/48/64 16/31/64
f 16/31/65 24/48/65 6/12/65
f 17/34/66 6/11/66 22/45/66
f 17/34/67 22/45/67 20/41/67
f 20/40/68 22/46/68 5/8/68
f 20/41/69 5/9/69 21/43/69
f 20/41/70 21/43/70 18/36/70
f 18/35/71 21/44/71 4/7/71
f 18/35/72 4/7/72 19/38/72
f 18/36/73 19/39/73 13/26/73
f 13/26/74 19/39/74 3/5/74
f 16/31/75 6/12/75 17/33/75
f 16/32/76 17/34/76 14/28/76
f 14/28/77 17/34/77 1/1/77
f 13/25/78 3/6/78 15/29/78
f 13/26/79 15/30/79 14/28/79
f 14/28/80 15/30/80 2/4/80
f 44/85/1 43/84/1 45/87/1
f 46/88/2 49/95/2 45/86/2
f 44/85/3 52/103/3 43/84/3
f 44/85/4 55/109/4 52/103/4
f 44/85/5 50/98/5 55/109/5
f 46/88/6 59/117/6 49/95/6
f 48/94/7 62/120/7 47/91/7
f 54/107/8 65/125/8 53/105/8
f 57/113/9 68/131/9 56/110/9
f 51/99/10 71/138/10 58/116/10
f 46/88/11 63/121/11 59/117/11
f 48/94/12 66/127/12 62/120/12
f 54/107/13 69/133/13 65/125/13
f 57/113/14 72/139/14 68/131/14
f 51/101/15 60/118/15 71/137/15
f 64/123/16 79/155/16 74/142/16
f 67/128/17 82/160/17 75/145/17
f 70/136/18 83/161/18 76/148/18
f 73/141/19 84/163/19 77/150/19
f 61/119/20 80/157/20 78/152/20
f 80/156/21 81/158/21 84/164/21
f 80/156/22 84/164/22 78/151/22
f 78/151/23 84/164/23 73/140/23
f 84/164/24 81/158/24 83/162/24
f 84/164/25 83/162/25 77/149/25
f 77/149/26 83/162/26 70/134/26
f 83/162/27 81/158/27 82/160/27
f 83/162/28 82/160/28 76/147/28
f 76/148/29 82/159/29 67/130/29
f 82/160/30 81/158/30 79/155/30
f 82/160/31 79/155/31 75/145/31
f 75/146/32 79/154/32 64/124/32
f 79/155/33 81/158/33 80/156/33
f 79/155/34 80/156/34 74/142/34
f 74/144/35 80/157/35 61/119/35
f 60/118/36 61/119/36 78/152/36
f 60/118/37 78/152/37 71/137/37
f 71/138/38 78/153/38 73/141/38
f 72/139/39 73/141/39 77/150/39
f 72/139/40 77/150/40 68/131/40
f 68/131/41 77/150/41 70/135/41
f 69/133/42 70/136/42 76/148/42
f 69/133/43 76/148/43 65/125/43
f 65/125/44 76/148/44 67/130/44
f 66/127/45 67/129/45 75/146/45
f 66/127/46 75/146/46 62/120/46
f 62/120/47 75/146/47 64/124/47
f 63/122/48 64/124/48 74/143/48
f 63/121/49 74/144/49 59/117/49
f 59/117/50 74/144/50 61/119/50
f 71/138/51 73/141/51 72/139/51
f 71/138/52 72/139/52 58/116/52
f 58/116/53 72/139/53 57/113/53
f 68/132/54 70/136/54 69/133/54
f 68/132/55 69/133/55 56/112/55
f 56/112/56 69/133/56 54/107/56
f 65/125/57 67/130/57 66/126/57
f 65/125/58 66/126/58 53/105/58
f 53/104/59 66/127/59 48/94/59
f 62/120/60 64/124/60 63/122/60
f 62/120/61 63/122/61 47/91/61
f 47/91/62 63/122/62 46/89/62
f 59/117/63 61/119/63 60/118/63
f 59/117/64 60/118/64 49/95/64
f 49/95/65 60/118/65 51/101/65
f 50/98/66 51/100/66 58/115/66
f 50/98/67 58/115/67 55/109/67
f 55/108/68 58/116/68 57/113/68
f 55/109/69 57/114/69 56/111/69
f 55/109/70 56/111/70 52/103/70
f 52/102/71 56/112/71 54/107/71
f 52/102/72 54/107/72 53/105/72
f 52/103/73 53/106/73 43/84/73
f 43/84/74 53/106/74 48/93/74
f 49/95/75 51/101/75 50/97/75
f 49/96/76 50/98/76 45/87/76
f 45/87/77 50/98/77 44/85/77
f 43/83/78 48/94/78 47/91/78
f 43/84/79 47/92/79 45/87/79
f 45/87/80 47/92/80 46/90/80
f 86/167/24 87/169/24 85/166/24
f 88/170/18 87/168/18 91/177/18
f 86/167/21 85/166/21 94/185/21
f 86/167/33 94/185/33 97/191/33
f 86/167/30 97/191/30 92/180/30
f 88/170/42 91/177/42 101/199/42
f 90/176/39 89/173/39 104/202/39
f 96/189/36 95/187/36 107/207/36
f 99/195/48 98/192/48 110/213/48
f 93/181/45 100/198/45 113/220/45
f 88/170/54 101/199/54 105/203/54
f 90/176/51 104/202/51 108/209/51
f 96/189/63 107/207/63 111/215/63
f 99/195/60 110/213/60 114/221/60
f 93/183/57 113/219/57 102/200/57
f 106/205/69 116/224/69 121/237/69
f 109/210/66 117/227/66 124/242/66
f 112/218/2 118/230/2 125/243/2
f 115/223/78 119/232/78 126/245/78
f 103/201/72 120/234/72 122/239/72
f 122/238/3 126/246/3 123/240/3
f 122/238/73 120/233/73 126/246/73
f 120/233/74 115/222/74 126/246/74
f 126/246/1 125/244/1 123/240/1
f 126/246/79 119/231/79 125/244/79
f 119/231/80 112/216/80 125/244/80
f 125/244/77 124/242/77 123/240/77
f 125/244/76 118/229/76 124/242/76
f 118/230/75 109/212/75 124/241/75
f 124/242/5 121/237/5 123/240/5
f 124/242/67 117/227/67 121/237/67
f 117/228/68 106/206/68 121/236/68
f 121/237/4 122/238/4 123/240/4
f 121/237/70 116/224/70 122/238/70
f 116/226/71 103/201/71 122/239/71
f 102/200/8 120/234/8 103/201/8
f 102/200/58 113/219/58 120/234/58
f 113/220/59 115/223/59 120/235/59
f 114/221/7 119/232/7 115/223/7
f 114/221/61 110/213/61 119/232/61
f 110/213/62 112/217/62 119/232/62
f 111/215/6 118/230/6 112/218/6
f 111/215/64 107/207/64 118/230/64
f 107/207/65 109/212/65 118/230/65
f 108/209/10 117/228/10 109/211/10
f 108/209/52 104/202/52 117/228/52
f 104/202/53 106/206/53 117/228/53
f 105/204/9 116/225/9 106/206/9
f 105/203/55 101/199/55 116/226/55
f 101/199/56 103/201/56 116/226/56
f 113/220/12 114/221/12 115/223/12
f 113/220/46 100/198/46 114/221/46
f 100/198/47 99/195/47 114/221/47
f 110/214/11 111/215/11 112/218/11
f 110/214/49 98/194/49 111/215/49
f 98/194/50 96/189/50 111/215/50
f 107/207/15 108/208/15 109/212/15
f 107/207/37 95/187/37 108/208/37
f 95/186/38 90/176/38 108/209/38
f 104/202/14 105/204/14 106/206/14
f 104/202/40 89/173/40 105/204/40
f 89/173/41 88/171/41 105/204/41
f 101/199/13 102/200/13 103/201/13
f 101/199/43 91/177/43 102/200/43
f 91/177/44 93/183/44 102/200/44
f 92/180/17 100/197/17 93/182/17
f 92/180/31 97/191/31 100/197/31
f 97/190/32 99/195/32 100/198/32
f 97/191/16 98/193/16 99/196/16
f 97/191/34 94/185/34 98/193/34
f 94/184/35 96/189/35 98/194/35
f 94/184/20 95/187/20 96/189/20
f 94/185/22 85/166/22 95/188/22
f 85/166/23 90/175/23 95/188/23
f 91/177/29 92/179/29 93/183/29
f 91/178/28 87/169/28 92/180/28
f 87/169/27 86/167/27 92/180/27
f 85/165/19 89/173/19 90/176/19
f 85/166/25 87/169/25 89/174/25
f 87/169/26 88/172/26 89/174/26
o Cube
v 0.793605 0.905568 0.009404
v 0.718577 0.905568 0.002482
v 0.793605 0.905568 -0.195118
v 0.724337 0.905568 -0.174926
v 0.793605 0.686978 0.009404
v 0.718577 0.686978 0.002482
v 0.793605 0.686978 -0.195118
v 0.724337 0.686978 -0.174926
v 0.635752 0.905568 -0.106128
v 0.635752 0.686978 -0.106128
v 0.022375 0.834441 -1.038354
v 0.110961 0.765684 -1.040740
v 0.110961 0.758105 -0.822281
v 0.022375 0.826863 -0.819896
v -0.159414 0.784127 0.433134
v -0.076588 0.692154 0.490902
v -0.076588 0.808420 0.676007
v -0.159414 0.900392 0.618239
v -1.134457 -0.266270 -3.454454
v -1.708331 -0.230732 2.199637
v 0.868633 0.905568 0.002482
v 0.862873 0.905568 -0.174926
v 0.868633 0.686978 0.002482
v 0.862873 0.686978 -0.174926
v 0.951459 0.905568 -0.106128
v 0.951459 0.686978 -0.106128
v 1.564835 0.834441 -1.038354
v 1.476249 0.765684 -1.040740
v 1.476249 0.758106 -0.822281
v 1.564835 0.826863 -0.819896
v 1.746624 0.784127 0.433134
v 1.663798 0.692154 0.490902
v 1.663798 0.808420 0.676007
v 1.746624 0.900392 0.618239
v 2.721668 -0.266270 -3.454454
v 3.295541 -0.230732 2.199637
vn -0.0000 -1.0000 -0.0000
vn 0.2799 -0.0000 0.9600
vn -0.0000 1.0000 -0.0000
vn 0.0919 -0.0000 -0.9958
vn 0.2388 0.9308 0.2768
vn -0.2483 -0.9279 0.2783
vn 0.7152 -0.6985 -0.0242
vn 0.3111 0.9408 -0.1345
vn -0.6795 0.5097 0.5277
vn 0.6795 -0.5097 -0.5277
vn -0.2407 -0.6624 -0.7095
vn -0.5551 0.4024 -0.7279
vn 0.5551 -0.4024 0.7279
vn -0.2088 -0.9290 -0.3056
vn -0.6670 0.7446 0.0258
vn 0.5181 0.6853 -0.5118
vn -0.5044 -0.6688 0.5462
vn 0.3027 0.6873 0.6603
vn 0.7578 -0.5525 0.3470
vn -0.7195 0.5881 -0.3694
vn -0.2799 -0.0000 0.9600
vn -0.0919 -0.0000 -0.9958
vn -0.2388 0.9308 0.2768
vn 0.2483 -0.9279 0.2783
vn -0.7152 -0.6985 -0.0242
vn -0.3111 0.9408 -0.1345
vn 0.6795 0.5097 0.5277
vn -0.6795 -0.5097 -0.5277
vn 0.2407 -0.6624 -0.7095
vn 0.5551 0.4024 -0.7279
vn -0.5551 -0.4024 0.7279
vn 0.2088 -0.9290 -0.3056
vn 0.6670 0.7446 0.0258
vn -0.5181 0.6853 -0.5118
vn 0.5044 -0.6688 0.5462
vn -0.3027 0.6873 0.6603
vn -0.7578 -0.5525 0.3470
vn 0.7195 0.5881 -0.3694
vt 0.375000 0.000000
vt 0.375000 1.000000
vt 0.625000 1.000000
vt 0.625000 0.000000
vt 0.375000 0.250000
vt 0.625000 0.250000
vt 0.375000 0.750000
vt 0.625000 0.750000
vt 0.375000 0.500000
vt 0.625000 0.500000
vt 0.875000 0.625000
vt 0.625000 0.125000
vt 0.625000 0.625000
vt 0.875000 0.625000
vt 0.625000 0.125000
vt 0.625000 0.250000
vt 0.625000 0.500000
vt 0.625000 0.625000
vt 0.625000 0.625000
vt 0.625000 0.750000
vt 0.625000 0.000000
vt 0.625000 1.000000
vt 0.625000 0.125000
vt 0.875000 0.625000
vt 0.875000 0.625000
vt 0.625000 0.500000
vt 0.625000 0.625000
vt 0.625000 0.250000
vt 0.625000 0.125000
vt 0.625000 0.750000
vt 0.625000 0.625000
vt 0.625000 1.000000
vt 0.625000 1.000000
vt 0.625000 0.000000
vt 0.625000 0.250000
vt 0.625000 0.750000
vt 0.625000 0.500000
vt 0.875000 0.625000
vt 0.625000 0.125000
vt 0.625000 0.625000
vt 0.875000 0.625000
vt 0.625000 0.125000
vt 0.625000 0.250000
vt 0.625000 0.500000
vt 0.625000 0.625000
vt 0.625000 0.625000
vt 0.625000 0.750000
vt 0.625000 0.000000
vt 0.625000 1.000000
vt 0.625000 0.125000
vt 0.875000 0.625000
vt 0.875000 0.625000
vt 0.625000 0.500000
vt 0.625000 0.625000
vt 0.625000 0.250000
vt 0.625000 0.125000
vt 0.625000 0.750000
vt 0.625000 0.625000
vt 0.625000 1.000000
s 0
usemtl Material.002
f 127/247/81 128/250/81 135/258/81 130/252/81 129/251/81
f 129/251/82 130/252/82 134/256/82 133/255/82
f 133/255/83 134/256/83 136/259/83 132/254/83 131/253/83
f 131/253/84 132/254/84 128/249/84 127/248/84
f 132/254/85 136/259/85 141/265/85 142/266/85
f 130/252/86 135/258/86 137/261/86 138/262/86
f 137/260/87 140/264/87 145/271/87
f 136/259/88 134/256/88 139/263/88 140/264/88
f 134/256/89 130/252/89 138/262/89 139/263/89
f 135/257/90 136/259/90 140/264/90 137/260/90
f 144/269/91 143/267/91 146/275/91
f 128/249/92 132/254/92 142/266/92 143/268/92
f 136/259/93 135/257/93 144/270/93 141/265/93
f 135/258/94 128/250/94 143/267/94 144/269/94
f 139/263/95 138/262/95 145/272/95
f 140/264/96 139/263/96 145/273/96
f 138/262/97 137/261/97 145/274/97
f 142/266/98 141/265/98 146/276/98
f 141/265/99 144/270/99 146/277/99
f 143/268/100 142/266/100 146/278/100
f 127/247/81 129/251/81 148/281/81 151/285/81 147/280/81
f 129/251/101 133/255/101 150/283/101 148/281/101
f 133/255/83 131/253/83 149/282/83 152/286/83 150/283/83
f 131/253/102 127/248/102 147/279/102 149/282/102
f 149/282/103 158/293/103 157/292/103 152/286/103
f 148/281/104 154/289/104 153/288/104 151/285/104
f 153/287/105 161/298/105 156/291/105
f 152/286/106 156/291/106 155/290/106 150/283/106
f 150/283/107 155/290/107 154/289/107 148/281/107
f 151/284/108 153/287/108 156/291/108 152/286/108
f 160/296/109 162/302/109 159/294/109
f 147/279/110 159/295/110 158/293/110 149/282/110
f 152/286/111 157/292/111 160/297/111 151/284/111
f 151/285/112 160/296/112 159/294/112 147/280/112
f 155/290/113 161/299/113 154/289/113
f 156/291/114 161/300/114 155/290/114
f 154/289/115 161/301/115 153/288/115
f 158/293/116 162/303/116 157/292/116
f 157/292/117 162/304/117 160/297/117
f 159/295/118 162/305/118 158/293/118
